  0
SECTION
  2
HEADER
  9
$ACADVER
  1
AC1032
  9
$ACADMAINTVER
 90
      155
  9
$DWGCODEPAGE
  3
ANSI_1252
  9
$REQUIREDVERSIONS
160
                 0
  9
$INSBASE
 10
0.0
 20
0.0
 30
0.0
  9
$EXTMIN
 10
9992.200368134113
 20
3770.508728069893
 30
-761.9999990246401
  9
$EXTMAX
 10
12151.4968381874
 20
6288.095060171573
 30
4931.0544
  9
$LIMMIN
 10
0.0
 20
0.0
  9
$LIMMAX
 10
12.0
 20
9.0
  9
$ORTHOMODE
 70
     0
  9
$REGENMODE
 70
     1
  9
$FILLMODE
 70
     1
  9
$QTEXTMODE
 70
     0
  9
$MIRRTEXT
 70
     0
  9
$LTSCALE
 40
1.0
  9
$ATTMODE
 70
     1
  9
$TEXTSIZE
 40
20.0
  9
$TRACEWID
 40
0.05
  9
$TEXTSTYLE
  7
Standard
  9
$CLAYER
  8
0
  9
$CELTYPE
  6
ByLayer
  9
$CECOLOR
 62
   256
  9
$CELTSCALE
 40
1.0
  9
$DISPSILH
 70
     0
  9
$DIMSCALE
 40
1.0
  9
$DIMASZ
 40
0.18
  9
$DIMEXO
 40
0.0625
  9
$DIMDLI
 40
0.38
  9
$DIMRND
 40
0.0
  9
$DIMDLE
 40
0.0
  9
$DIMEXE
 40
0.18
  9
$DIMTP
 40
0.0
  9
$DIMTM
 40
0.0
  9
$DIMTXT
 40
0.18
  9
$DIMCEN
 40
0.09
  9
$DIMTSZ
 40
0.0
  9
$DIMTOL
 70
     0
  9
$DIMLIM
 70
     0
  9
$DIMTIH
 70
     1
  9
$DIMTOH
 70
     1
  9
$DIMSE1
 70
     0
  9
$DIMSE2
 70
     0
  9
$DIMTAD
 70
     0
  9
$DIMZIN
 70
     0
  9
$DIMBLK
  1

  9
$DIMASO
 70
     1
  9
$DIMSHO
 70
     1
  9
$DIMPOST
  1

  9
$DIMAPOST
  1

  9
$DIMALT
 70
     0
  9
$DIMALTD
 70
     2
  9
$DIMALTF
 40
25.4
  9
$DIMLFAC
 40
1.0
  9
$DIMTOFL
 70
     0
  9
$DIMTVP
 40
0.0
  9
$DIMTIX
 70
     0
  9
$DIMSOXD
 70
     0
  9
$DIMSAH
 70
     0
  9
$DIMBLK1
  1

  9
$DIMBLK2
  1

  9
$DIMSTYLE
  2
Standard
  9
$DIMCLRD
 70
     0
  9
$DIMCLRE
 70
     0
  9
$DIMCLRT
 70
     0
  9
$DIMTFAC
 40
1.0
  9
$DIMGAP
 40
0.09
  9
$DIMJUST
 70
     0
  9
$DIMSD1
 70
     0
  9
$DIMSD2
 70
     0
  9
$DIMTOLJ
 70
     1
  9
$DIMTZIN
 70
     0
  9
$DIMALTZ
 70
     0
  9
$DIMALTTZ
 70
     0
  9
$DIMUPT
 70
     0
  9
$DIMDEC
 70
     4
  9
$DIMTDEC
 70
     4
  9
$DIMALTU
 70
     2
  9
$DIMALTTD
 70
     2
  9
$DIMTXSTY
  7
Standard
  9
$DIMAUNIT
 70
     0
  9
$DIMADEC
 70
     0
  9
$DIMALTRND
 40
0.0
  9
$DIMAZIN
 70
     0
  9
$DIMDSEP
 70
    46
  9
$DIMATFIT
 70
     3
  9
$DIMFRAC
 70
     0
  9
$DIMLDRBLK
  1

  9
$DIMLUNIT
 70
     2
  9
$DIMLWD
 70
    -2
  9
$DIMLWE
 70
    -2
  9
$DIMTMOVE
 70
     0
  9
$DIMFXL
 40
1.0
  9
$DIMFXLON
 70
     0
  9
$DIMJOGANG
 40
0.7853981633974483
  9
$DIMTFILL
 70
     0
  9
$DIMTFILLCLR
 70
     0
  9
$DIMARCSYM
 70
     0
  9
$DIMLTYPE
  6

  9
$DIMLTEX1
  6

  9
$DIMLTEX2
  6

  9
$DIMTXTDIRECTION
 70
     0
  9
$LUNITS
 70
     2
  9
$LUPREC
 70
     4
  9
$SKETCHINC
 40
0.1
  9
$FILLETRAD
 40
0.0
  9
$AUNITS
 70
     0
  9
$AUPREC
 70
     0
  9
$MENU
  1
.
  9
$ELEVATION
 40
0.0
  9
$PELEVATION
 40
0.0
  9
$THICKNESS
 40
0.0
  9
$LIMCHECK
 70
     0
  9
$CHAMFERA
 40
0.0
  9
$CHAMFERB
 40
0.0
  9
$CHAMFERC
 40
0.0
  9
$CHAMFERD
 40
0.0
  9
$SKPOLY
 70
     0
  9
$TDCREATE
 40
2460759.515763889
  9
$TDUCREATE
 40
2460759.807430556
  9
$TDUPDATE
 40
2460790.778703703
  9
$TDUUPDATE
 40
2460791.070370371
  9
$TDINDWG
 40
0.2204050926
  9
$TDUSRTIMER
 40
0.2204050926
  9
$USRTIMER
 70
     1
  9
$ANGBASE
 50
0.0
  9
$ANGDIR
 70
     0
  9
$PDMODE
 70
     0
  9
$PDSIZE
 40
0.0
  9
$PLINEWID
 40
0.0
  9
$SPLFRAME
 70
     0
  9
$SPLINETYPE
 70
     6
  9
$SPLINESEGS
 70
     8
  9
$HANDSEED
  5
D5
  9
$SURFTAB1
 70
     6
  9
$SURFTAB2
 70
     6
  9
$SURFTYPE
 70
     6
  9
$SURFU
 70
     6
  9
$SURFV
 70
     6
  9
$UCSBASE
  2

  9
$UCSNAME
  2

  9
$UCSORG
 10
0.0
 20
0.0
 30
0.0
  9
$UCSXDIR
 10
1.0
 20
0.0
 30
0.0
  9
$UCSYDIR
 10
0.0
 20
1.0
 30
0.0
  9
$UCSORTHOREF
  2

  9
$UCSORTHOVIEW
 70
     0
  9
$UCSORGTOP
 10
0.0
 20
0.0
 30
0.0
  9
$UCSORGBOTTOM
 10
0.0
 20
0.0
 30
0.0
  9
$UCSORGLEFT
 10
0.0
 20
0.0
 30
0.0
  9
$UCSORGRIGHT
 10
0.0
 20
0.0
 30
0.0
  9
$UCSORGFRONT
 10
0.0
 20
0.0
 30
0.0
  9
$UCSORGBACK
 10
0.0
 20
0.0
 30
0.0
  9
$PUCSBASE
  2

  9
$PUCSNAME
  2

  9
$PUCSORG
 10
0.0
 20
0.0
 30
0.0
  9
$PUCSXDIR
 10
1.0
 20
0.0
 30
0.0
  9
$PUCSYDIR
 10
0.0
 20
1.0
 30
0.0
  9
$PUCSORTHOREF
  2

  9
$PUCSORTHOVIEW
 70
     0
  9
$PUCSORGTOP
 10
0.0
 20
0.0
 30
0.0
  9
$PUCSORGBOTTOM
 10
0.0
 20
0.0
 30
0.0
  9
$PUCSORGLEFT
 10
0.0
 20
0.0
 30
0.0
  9
$PUCSORGRIGHT
 10
0.0
 20
0.0
 30
0.0
  9
$PUCSORGFRONT
 10
0.0
 20
0.0
 30
0.0
  9
$PUCSORGBACK
 10
0.0
 20
0.0
 30
0.0
  9
$USERI1
 70
     0
  9
$USERI2
 70
     0
  9
$USERI3
 70
     0
  9
$USERI4
 70
     0
  9
$USERI5
 70
     0
  9
$USERR1
 40
0.0
  9
$USERR2
 40
0.0
  9
$USERR3
 40
0.0
  9
$USERR4
 40
0.0
  9
$USERR5
 40
0.0
  9
$WORLDVIEW
 70
     1
  9
$SHADEDGE
 70
     3
  9
$SHADEDIF
 70
    70
  9
$TILEMODE
 70
     1
  9
$MAXACTVP
 70
    64
  9
$PINSBASE
 10
0.0
 20
0.0
 30
0.0
  9
$PLIMCHECK
 70
     0
  9
$PEXTMIN
 10
1.000000000000000E+20
 20
1.000000000000000E+20
 30
1.000000000000000E+20
  9
$PEXTMAX
 10
-1.000000000000000E+20
 20
-1.000000000000000E+20
 30
-1.000000000000000E+20
  9
$PLIMMIN
 10
0.0
 20
0.0
  9
$PLIMMAX
 10
12.0
 20
9.0
  9
$UNITMODE
 70
     0
  9
$VISRETAIN
 70
     1
  9
$PLINEGEN
 70
     0
  9
$PSLTSCALE
 70
     1
  9
$TREEDEPTH
 70
  3020
  9
$CMLSTYLE
  2
Standard
  9
$CMLJUST
 70
     0
  9
$CMLSCALE
 40
1.0
  9
$PROXYGRAPHICS
 70
     1
  9
$MEASUREMENT
 70
     0
  9
$CELWEIGHT
370
    -1
  9
$ENDCAPS
280
     0
  9
$JOINSTYLE
280
     0
  9
$LWDISPLAY
290
     0
  9
$INSUNITS
 70
     0
  9
$HYPERLINKBASE
  1

  9
$STYLESHEET
  1

  9
$XEDIT
290
     1
  9
$CEPSNTYPE
380
     0
  9
$PSTYLEMODE
290
     1
  9
$FINGERPRINTGUID
  2
{AFB6D8BD-B5B1-9D46-8802-A7AB2D5EA983}
  9
$VERSIONGUID
  2
{06DDF52D-9B05-124C-84A7-3EE4561D0B2A}
  9
$EXTNAMES
290
     1
  9
$PSVPSCALE
 40
0.0
  9
$OLESTARTUP
290
     0
  9
$SORTENTS
280
   127
  9
$INDEXCTL
280
     0
  9
$HIDETEXT
280
     1
  9
$XCLIPFRAME
280
     2
  9
$HALOGAP
280
     0
  9
$OBSCOLOR
 70
   257
  9
$OBSLTYPE
280
     0
  9
$INTERSECTIONDISPLAY
280
     0
  9
$INTERSECTIONCOLOR
 70
   257
  9
$DIMASSOC
280
     1
  9
$PROJECTNAME
  1

  9
$CAMERADISPLAY
290
     0
  9
$LENSLENGTH
 40
50.0
  9
$CAMERAHEIGHT
 40
0.0
  9
$STEPSPERSEC
 40
2.0
  9
$STEPSIZE
 40
6.0
  9
$3DDWFPREC
 40
2.0
  9
$PSOLWIDTH
 40
0.25
  9
$PSOLHEIGHT
 40
4.0
  9
$LOFTANG1
 40
1.570796326794896
  9
$LOFTANG2
 40
1.570796326794896
  9
$LOFTMAG1
 40
0.0
  9
$LOFTMAG2
 40
0.0
  9
$LOFTPARAM
 70
     7
  9
$LOFTNORMALS
280
     1
  9
$LATITUDE
 40
37.795
  9
$LONGITUDE
 40
-122.394
  9
$NORTHDIRECTION
 40
0.0
  9
$TIMEZONE
 70
 -8000
  9
$LIGHTGLYPHDISPLAY
280
     1
  9
$TILEMODELIGHTSYNCH
280
     1
  9
$CMATERIAL
347
35
  9
$SOLIDHIST
280
     0
  9
$SHOWHIST
280
     1
  9
$DWFFRAME
280
     2
  9
$DGNFRAME
280
     0
  9
$REALWORLDSCALE
290
     1
  9
$INTERFERECOLOR
 62
     1
  9
$INTERFEREOBJVS
345
56
  9
$INTERFEREVPVS
346
57
  9
$CSHADOW
280
     0
  9
$SHADOWPLANELOCATION
 40
0.0
  0
ENDSEC
  0
SECTION
  2
CLASSES
  0
CLASS
  1
ACDBDICTIONARYWDFLT
  2
AcDbDictionaryWithDefault
  3
ObjectDBX Classes
 90
        0
 91
        1
280
     0
281
     0
  0
CLASS
  1
MATERIAL
  2
AcDbMaterial
  3
ObjectDBX Classes
 90
     1153
 91
        3
280
     0
281
     0
  0
CLASS
  1
VISUALSTYLE
  2
AcDbVisualStyle
  3
ObjectDBX Classes
 90
     4095
 91
        3
280
     0
281
     0
  0
CLASS
  1
SCALE
  2
AcDbScale
  3
ObjectDBX Classes
 90
     1153
 91
       19
280
     0
281
     0
  0
CLASS
  1
TABLESTYLE
  2
AcDbTableStyle
  3
ObjectDBX Classes
 90
     4095
 91
        1
280
     0
281
     0
  0
CLASS
  1
MLEADERSTYLE
  2
AcDbMLeaderStyle
  3
ACDB_MLEADERSTYLE_CLASS
 90
     4095
 91
        0
280
     0
281
     0
  0
CLASS
  1
ACDBSECTIONVIEWSTYLE
  2
AcDbSectionViewStyle
  3
ObjectDBX Classes
 90
     1025
 91
        0
280
     0
281
     0
  0
CLASS
  1
ACDBDETAILVIEWSTYLE
  2
AcDbDetailViewStyle
  3
ObjectDBX Classes
 90
     1025
 91
        0
280
     0
281
     0
  0
CLASS
  1
EXACXREFPANELOBJECT
  2
ExAcXREFPanelObject
  3
EXAC_ESW
 90
     1025
 91
        0
280
     0
281
     0
  0
CLASS
  1
NPOCOLLECTION
  2
AcDbImpNonPersistentObjectsCollection
  3
ObjectDBX Classes
 90
     1153
 91
        0
280
     0
281
     0
  0
CLASS
  1
DICTIONARYVAR
  2
AcDbDictionaryVar
  3
ObjectDBX Classes
 90
        0
 91
        9
280
     0
281
     0
  0
CLASS
  1
SOLID_BACKGROUND
  2
AcDbSolidBackground
  3
SCENEOE
 90
     4095
 91
        0
280
     0
281
     0
  0
CLASS
  1
CELLSTYLEMAP
  2
AcDbCellStyleMap
  3
ObjectDBX Classes
 90
     1152
 91
        1
280
     0
281
     0
  0
CLASS
  1
SORTENTSTABLE
  2
AcDbSortentsTable
  3
ObjectDBX Classes
 90
        0
 91
        2
280
     0
281
     0
  0
ENDSEC
  0
SECTION
  2
TABLES
  0
TABLE
  2
VPORT
  5
28
330
0
100
AcDbSymbolTable
 70
     1
  0
VPORT
  5
29
330
28
100
AcDbSymbolTableRecord
100
AcDbViewportTableRecord
  2
*Active
 70
     0
 10
0.0
 20
0.0
 11
1.0
 21
1.0
 12
806.1718256658368
 22
1175.063202843159
 13
0.0
 23
0.0
 14
1.0
 24
1.0
 15
0.0
 25
0.0
 16
-0.000000000005457
 26
0.0
 36
20662.27292810491
 17
9898.7905
 27
4006.808
 37
1874.2735
 40
3361.555748793162
 41
1.986731001206272
 42
50.0
 43
0.0
 44
0.0
 50
0.0
 51
0.0
 71
     0
 72
  1000
 73
     1
 74
     3
 75
     0
 76
     0
 77
     0
 78
     0
281
     0
 65
     1
110
0.0
120
0.0
130
0.0
111
1.0
121
0.0
131
0.0
112
0.0
122
1.0
132
0.0
 79
     0
146
0.0
348
2A
 60
     3
 61
     5
292
     1
282
     1
141
0.0
142
0.0
 63
   250
421
  3355443
1001
ACAD_NAV_VCDISPLAY
1070
     3
  0
ENDTAB
  0
TABLE
  2
LTYPE
  5
23
330
0
100
AcDbSymbolTable
 70
     1
  0
LTYPE
  5
24
330
23
100
AcDbSymbolTableRecord
100
AcDbLinetypeTableRecord
  2
ByBlock
 70
     0
  3

 72
    65
 73
     0
 40
0.0
  0
LTYPE
  5
25
330
23
100
AcDbSymbolTableRecord
100
AcDbLinetypeTableRecord
  2
ByLayer
 70
     0
  3

 72
    65
 73
     0
 40
0.0
  0
LTYPE
  5
15
330
23
100
AcDbSymbolTableRecord
100
AcDbLinetypeTableRecord
  2
Continuous
 70
     0
  3
Solid line
 72
    65
 73
     0
 40
0.0
  0
ENDTAB
  0
TABLE
  2
LAYER
  5
1D
102
{ACAD_XDICTIONARY
360
1E
102
}
330
0
100
AcDbSymbolTable
 70
     5
  0
LAYER
  5
6
102
{ACAD_XDICTIONARY
360
7
102
}
330
1D
100
AcDbSymbolTableRecord
100
AcDbLayerTableRecord
  2
0
 70
     0
 62
     7
  6
Continuous
370
    -3
390
9
347
C
348
0
  0
LAYER
  5
70
330
1D
100
AcDbSymbolTableRecord
100
AcDbLayerTableRecord
  2
Panel1_production
 70
     0
 62
   253
  6
Continuous
370
    -3
390
9
347
C
348
0
1001
AcAecLayerStandard
1000

1000

1001
AcCmTransparency
1071
        0
  0
LAYER
  5
72
330
1D
100
AcDbSymbolTableRecord
100
AcDbLayerTableRecord
  2
Panel2_production
 70
     0
 62
   253
  6
Continuous
370
    -3
390
9
347
C
348
0
1001
AcAecLayerStandard
1000

1000

1001
AcCmTransparency
1071
        0
  0
LAYER
  5
6C
330
1D
100
AcDbSymbolTableRecord
100
AcDbLayerTableRecord
  2
Panel3_production
 70
     0
 62
   253
  6
Continuous
370
    -3
390
9
347
C
348
0
1001
AcAecLayerStandard
1000

1000

1001
AcCmTransparency
1071
        0
  0
LAYER
  5
BA
330
1D
100
AcDbSymbolTableRecord
100
AcDbLayerTableRecord
  2
Panel4_production
 70
     0
 62
   253
  6
Continuous
370
    -3
390
9
347
C
348
0
1001
AcAecLayerStandard
1000

1000

1001
AcCmTransparency
1071
        0
  0
ENDTAB
  0
TABLE
  2
STYLE
  5
20
330
0
100
AcDbSymbolTable
 70
     2
  0
STYLE
  5
21
330
20
100
AcDbSymbolTableRecord
100
AcDbTextStyleTableRecord
  2
Standard
 70
     0
 40
0.0
 41
1.0
 50
0.0
 71
     0
 42
20.0
  3
txt
  4

  0
STYLE
  5
78
330
20
100
AcDbSymbolTableRecord
100
AcDbTextStyleTableRecord
  2
ROMANC
 70
     0
 40
0.0
 41
1.0
 50
0.0
 71
     0
 42
6.0
  3
romanc.shx
  4

  0
ENDTAB
  0
TABLE
  2
VIEW
  5
26
330
0
100
AcDbSymbolTable
 70
     0
  0
ENDTAB
  0
TABLE
  2
UCS
  5
27
330
0
100
AcDbSymbolTable
 70
     0
  0
ENDTAB
  0
TABLE
  2
APPID
  5
2D
330
0
100
AcDbSymbolTable
 70
     6
  0
APPID
  5
2E
330
2D
100
AcDbSymbolTableRecord
100
AcDbRegAppTableRecord
  2
ACAD
 70
     0
  0
APPID
  5
2C
330
2D
100
AcDbSymbolTableRecord
100
AcDbRegAppTableRecord
  2
ACAD_NAV_VCDISPLAY
 70
     0
  0
APPID
  5
6D
330
2D
100
AcDbSymbolTableRecord
100
AcDbRegAppTableRecord
  2
AcAecLayerStandard
 70
     0
  0
APPID
  5
6E
330
2D
100
AcDbSymbolTableRecord
100
AcDbRegAppTableRecord
  2
AcCmTransparency
 70
     0
  0
APPID
  5
BB
330
2D
100
AcDbSymbolTableRecord
100
AcDbRegAppTableRecord
  2
GradientColor1ACI
 70
     0
  0
APPID
  5
BC
330
2D
100
AcDbSymbolTableRecord
100
AcDbRegAppTableRecord
  2
GradientColor2ACI
 70
     0
  0
ENDTAB
  0
TABLE
  2
DIMSTYLE
  5
2F
330
0
100
AcDbSymbolTable
 70
     1
100
AcDbDimStyleTable
 71
     1
340
30
  0
DIMSTYLE
105
30
330
2F
100
AcDbSymbolTableRecord
100
AcDbDimStyleTableRecord
  2
Standard
 70
     0
340
21
  0
ENDTAB
  0
TABLE
  2
BLOCK_RECORD
  5
1
330
0
100
AcDbSymbolTable
 70
     0
  0
BLOCK_RECORD
  5
2
102
{ACAD_XDICTIONARY
360
3
102
}
330
1
100
AcDbSymbolTableRecord
100
AcDbBlockTableRecord
  2
*Model_Space
340
17
 70
     0
280
     1
281
     0
  0
BLOCK_RECORD
  5
19
330
1
100
AcDbSymbolTableRecord
100
AcDbBlockTableRecord
  2
*Paper_Space
340
1C
 70
     0
280
     1
281
     0
  0
ENDTAB
  0
ENDSEC
  0
SECTION
  2
BLOCKS
  0
BLOCK
  5
5
330
2
100
AcDbEntity
  8
0
100
AcDbBlockBegin
  2
*Model_Space
 70
     0
 10
0.0
 20
0.0
 30
0.0
  3
*Model_Space
  1

  0
ENDBLK
  5
16
330
2
100
AcDbEntity
  8
0
100
AcDbBlockEnd
  0
BLOCK
  5
1A
330
19
100
AcDbEntity
 67
     1
  8
0
100
AcDbBlockBegin
  2
*Paper_Space
 70
     0
 10
0.0
 20
0.0
 30
0.0
  3
*Paper_Space
  1

  0
ENDBLK
  5
1B
330
19
100
AcDbEntity
 67
     1
  8
0
100
AcDbBlockEnd
  0
ENDSEC
  0
SECTION
  2
ENTITIES
  0
HATCH
  5
6B
330
2
100
AcDbEntity
  8
Panel3_production
  6
Continuous
100
AcDbHatch
 10
0.0
 20
0.0
 30
0.0
210
0.0
220
0.0
230
1.0
  2
ANSI31
 70
     0
 71
     1
 91
        5
 92
        1
 93
        4
 72
     1
 10
11018.89140216018
 20
5570.691739190944
 11
12044.88225330216
 21
5303.342314380678
 72
     1
 10
12044.88225330216
 20
5303.342314380678
 11
12009.32148915172
 21
5166.824167541547
 72
     1
 10
12009.32148915172
 20
5166.824167541547
 11
10983.31834062491
 21
5434.148833078715
 72
     1
 10
10983.31834062491
 20
5434.148833078715
 11
11018.89140216018
 21
5570.691739190944
 97
        1
330
B7
 92
       24
 93
        4
 72
     1
 10
11151.00136164426
 20
5425.432734097811
 11
11166.36210740456
 21
5484.425692064736
 72
     1
 10
11166.36210740456
 20
5484.425692064736
 11
11149.50697655687
 21
5488.81447656768
 72
     1
 10
11149.50697655687
 20
5488.81447656768
 11
11134.14623079657
 21
5429.821518600754
 72
     1
 10
11134.14623079657
 20
5429.821518600754
 11
11151.00136164426
 21
5425.432734097811
 97
        1
330
B1
 92
        9
 93
        4
 72
     1
 10
10999.59342191159
 20
5437.77880529376
 11
11029.94918139029
 21
5554.3601269903
 72
     1
 10
11029.94918139029
 20
5554.3601269903
 11
11013.09405054259
 21
5558.748911493243
 72
     1
 10
11013.09405054259
 20
5558.748911493243
 11
10982.7382910639
 21
5442.167589796703
 72
     1
 10
10982.7382910639
 20
5442.167589796703
 11
10999.59342191159
 21
5437.77880529376
 97
        1
330
B0
 92
       24
 93
        4
 72
     1
 10
11420.52569823813
 20
5353.194042012686
 11
11435.88644399844
 21
5412.18699997961
 72
     1
 10
11435.88644399844
 20
5412.18699997961
 11
11419.03131315074
 21
5416.575784482554
 72
     1
 10
11419.03131315074
 20
5416.575784482554
 11
11403.67056739044
 21
5357.58282651563
 72
     1
 10
11403.67056739044
 20
5357.58282651563
 11
11420.52569823813
 21
5353.194042012686
 97
        1
330
B3
 92
       24
 93
        4
 72
     1
 10
11785.10315337296
 20
5261.18456212734
 11
11798.6352389237
 21
5313.154548907725
 72
     1
 10
11798.6352389237
 20
5313.154548907725
 11
11781.78010807601
 21
5317.543333410669
 72
     1
 10
11781.78010807601
 20
5317.543333410669
 11
11768.24802252527
 21
5265.573346630283
 72
     1
 10
11768.24802252527
 20
5265.573346630283
 11
11785.10315337296
 21
5261.18456212734
 97
        1
330
B5
 75
     0
 76
     1
 52
0.0
 41
18.288
 77
     0
 78
     1
 53
45.0
 43
0.0
 44
0.0
 45
-1.616446101792446
 46
1.616446101792446
 79
     0
 98
        3
 10
0.0
 20
0.0
 10
0.0
 20
0.0
 10
0.0
 20
0.0
1001
ACAD
1010
0.0
1020
0.0
1030
0.0
  0
LWPOLYLINE
  5
6F
102
{ACAD_REACTORS
330
76
102
}
330
2
100
AcDbEntity
  8
Panel1_production
100
AcDbPolyline
 90
        4
 70
     1
 43
0.0
 10
10746.33345481967
 20
4869.633835246862
 10
12151.4968381874
 20
4503.553218104675
 10
12091.17440560603
 20
4272.011409317004
 10
10680.98984691991
 20
4639.367734324846
  0
LINE
  5
71
330
2
100
AcDbEntity
  8
Panel2_production
  6
Continuous
 62
     0
100
AcDbLine
 10
11364.32507896784
 20
4834.620771984114
 30
0.0
 11
11434.25569141581
 21
5076.444702908585
 31
0.0
  0
LWPOLYLINE
  5
73
102
{ACAD_REACTORS
330
94
102
}
330
2
100
AcDbEntity
  8
Panel2_production
  6
Continuous
100
AcDbPolyline
 90
        4
 70
     1
 43
0.0
 10
11020.43445558088
 20
5184.255485461791
 10
11478.79382870094
 20
5064.841404144742
 10
11415.35221638724
 20
4821.3269263805
 10
10947.5542976175
 20
4943.199984919748
  0
HATCH
  5
74
330
2
100
AcDbEntity
  8
Panel2_production
  6
Continuous
100
AcDbHatch
 10
0.0
 20
0.0
 30
0.0
210
0.0
220
0.0
230
1.0
  2
ANSI31
 70
     0
 71
     1
 91
        7
 92
        1
 93
        8
 72
     1
 10
10110.76339322174
 20
5421.247550170639
 11
10084.62059205186
 21
5331.820367286536
 72
     1
 10
10084.62059205186
 20
5331.820367286536
 11
10085.21205118396
 21
5331.647462382326
 72
     1
 10
10085.21205118396
 20
5331.647462382326
 11
10078.28385954879
 21
5307.950690354164
 72
     1
 10
10078.28385954879
 20
5307.950690354164
 11
10077.69669636182
 21
5308.12233939818
 72
     1
 10
10077.69669636182
 20
5308.12233939818
 11
10040.12714573411
 21
5179.607454821613
 72
     1
 10
10040.12714573411
 20
5179.607454821613
 11
10947.5542976175
 21
4943.199984919748
 72
     1
 10
10947.5542976175
 20
4943.199984919748
 11
11020.43445558088
 21
5184.255485461791
 72
     1
 10
11020.43445558088
 20
5184.255485461791
 11
10110.76339322174
 21
5421.247550170639
 97
        1
330
86
 92
       24
 93
        4
 72
     1
 10
10078.10026298418
 20
5252.415839479727
 11
10111.65995763246
 21
5369.248565523014
 72
     1
 10
10111.65995763246
 20
5369.248565523014
 11
10094.9197461397
 21
5374.057118786051
 72
     1
 10
10094.9197461397
 20
5374.057118786051
 11
10061.36005149141
 21
5257.224392742767
 72
     1
 10
10061.36005149141
 20
5257.224392742767
 11
10078.10026298418
 21
5252.415839479727
 97
        1
330
87
 92
       24
 93
        4
 72
     1
 10
10415.93810955212
 20
5180.853861274346
 11
10432.46751139382
 21
5238.398338280741
 72
     1
 10
10432.46751139382
 20
5238.398338280741
 11
10415.72729990105
 21
5243.206891543779
 72
     1
 10
10415.72729990105
 20
5243.206891543779
 11
10399.19789805935
 21
5185.662414537382
 72
     1
 10
10399.19789805935
 20
5185.662414537382
 11
10415.93810955212
 21
5180.853861274346
 97
        1
330
89
 92
       24
 93
        4
 72
     1
 10
10145.62288604238
 20
5253.587630341125
 11
10162.45282246301
 21
5312.178370565818
 72
     1
 10
10162.45282246301
 20
5312.178370565818
 11
10145.71261097024
 21
5316.986923828856
 72
     1
 10
10145.71261097024
 20
5316.986923828856
 11
10128.88267454961
 21
5258.396183604162
 72
     1
 10
10128.88267454961
 20
5258.396183604162
 11
10145.62288604238
 21
5253.587630341125
 97
        1
330
8B
 92
       24
 93
        4
 72
     1
 10
10644.54590734055
 20
5119.013979096216
 11
10660.7747746033
 21
5175.512192884313
 72
     1
 10
10660.7747746033
 20
5175.512192884313
 11
10644.03456311053
 21
5180.320746147351
 72
     1
 10
10644.03456311053
 20
5180.320746147351
 11
10627.80569584778
 21
5123.822532359253
 72
     1
 10
10627.80569584778
 20
5123.822532359253
 11
10644.54590734055
 21
5119.013979096216
 97
        1
330
8D
 92
       24
 93
        4
 72
     1
 10
10770.73411748283
 20
5077.708451233941
 11
10787.26351932452
 21
5135.252928240337
 72
     1
 10
10787.26351932452
 20
5135.252928240337
 11
10770.52330783175
 21
5140.061481503373
 72
     1
 10
10770.52330783175
 20
5140.061481503373
 11
10753.99390599006
 21
5082.517004496978
 72
     1
 10
10753.99390599006
 20
5082.517004496978
 11
10770.73411748283
 21
5077.708451233941
 97
        1
330
8F
 92
       25
 93
        4
 72
     1
 10
10977.05655713778
 20
5032.68832953219
 11
10993.08506801457
 21
5088.489034508087
 72
     1
 10
10993.08506801457
 20
5088.489034508087
 11
10976.3448565218
 21
5093.297587771125
 72
     1
 10
10976.3448565218
 20
5093.297587771125
 11
10960.316345645
 21
5037.496882795228
 72
     1
 10
10960.316345645
 20
5037.496882795228
 11
10977.05655713778
 21
5032.68832953219
 97
        1
330
91
 75
     0
 76
     1
 52
0.0
 41
18.288
 77
     0
 78
     1
 53
45.0
 43
0.0
 44
0.0
 45
-1.616446101792446
 46
1.616446101792446
 79
     0
 98
        5
 10
0.0
 20
0.0
 10
0.0
 20
0.0
 10
0.0
 20
0.0
 10
0.0
 20
0.0
 10
0.0
 20
0.0
1001
ACAD
1010
0.0
1020
0.0
1030
0.0
  0
HATCH
  5
75
330
2
100
AcDbEntity
  8
Panel1_production
  6
Continuous
100
AcDbHatch
 10
0.0
 20
0.0
 30
0.0
210
0.0
220
0.0
230
1.0
  2
ANSI31
 70
     0
 71
     1
 91
        4
 92
        1
 93
        4
 72
     1
 10
10746.33345481967
 20
4869.633835246862
 11
10680.98984691991
 21
4639.367734324846
 72
     1
 10
10680.98984691991
 20
4639.367734324846
 11
10033.78787455988
 21
4807.9653385459
 72
     1
 10
10033.78787455988
 20
4807.9653385459
 11
10101.3793943916
 21
5037.660722440071
 72
     1
 10
10101.3793943916
 20
5037.660722440071
 11
10746.33345481967
 21
4869.633835246862
 97
        1
330
82
 92
       25
 93
        4
 72
     1
 10
10708.77154718428
 20
4731.337837979243
 11
10725.30094902597
 21
4788.882314985637
 72
     1
 10
10725.30094902597
 20
4788.882314985637
 11
10708.56073753321
 21
4793.690868248673
 72
     1
 10
10708.56073753321
 20
4793.690868248673
 11
10692.03133569151
 21
4736.14639124228
 72
     1
 10
10692.03133569151
 20
4736.14639124228
 11
10708.77154718428
 21
4731.337837979243
 97
        1
330
77
 92
       24
 93
        4
 72
     1
 10
10419.6384505065
 20
4798.577201555128
 11
10436.46838692714
 21
4857.167941779821
 72
     1
 10
10436.46838692714
 20
4857.167941779821
 11
10419.72817543437
 21
4861.976495042858
 72
     1
 10
10419.72817543437
 20
4861.976495042858
 11
10402.89823901373
 21
4803.385754818165
 72
     1
 10
10402.89823901373
 20
4803.385754818165
 11
10419.6384505065
 21
4798.577201555128
 97
        1
330
83
 92
       24
 93
        4
 72
     1
 10
10070.81243593893
 20
4867.658639032164
 11
10104.07159600828
 21
4983.445101857153
 72
     1
 10
10104.07159600828
 20
4983.445101857153
 11
10087.33138451551
 21
4988.25365512019
 72
     1
 10
10087.33138451551
 20
4988.25365512019
 11
10054.07222444616
 21
4872.467192295204
 72
     1
 10
10054.07222444616
 20
4872.467192295204
 11
10070.81243593893
 21
4867.658639032164
 97
        1
330
88
 75
     0
 76
     1
 52
0.0
 41
18.288
 77
     0
 78
     1
 53
45.0
 43
0.0
 44
0.0
 45
-1.616446101792446
 46
1.616446101792446
 79
     0
 98
        1
 10
0.0
 20
0.0
1001
ACAD
1010
0.0
1020
0.0
1030
0.0
  0
HATCH
  5
76
330
2
100
AcDbEntity
  8
Panel1_production
100
AcDbHatch
 10
0.0
 20
0.0
 30
0.0
210
0.0
220
0.0
230
1.0
  2
ANSI31
 70
     0
 71
     1
 91
        1
 92
        1
 93
        4
 72
     1
 10
10746.33345481967
 20
4869.633835246862
 11
12151.4968381874
 21
4503.553218104675
 72
     1
 10
12151.4968381874
 20
4503.553218104675
 11
12091.17440560603
 21
4272.011409317004
 72
     1
 10
12091.17440560603
 20
4272.011409317004
 11
10680.98984691991
 21
4639.367734324846
 72
     1
 10
10680.98984691991
 20
4639.367734324846
 11
10746.33345481967
 21
4869.633835246862
 97
        1
330
6F
 75
     0
 76
     1
 52
0.0
 41
18.288
 77
     0
 78
     1
 53
45.0
 43
0.0
 44
0.0
 45
-1.616446101792446
 46
1.616446101792446
 79
     0
 98
        0
1001
ACAD
1010
0.0
1020
0.0
1030
0.0
  0
TEXT
  5
77
102
{ACAD_REACTORS
330
75
102
}
330
2
100
AcDbEntity
  8
Panel1_production
 62
     7
100
AcDbText
 10
10704.04112205769
 20
4734.584282904438
 30
457.2
 40
7.619999999999999
  1
01/01/10
 50
73.97351713471596
  7
ROMANC
100
AcDbText
  0
TEXT
  5
79
330
2
100
AcDbEntity
  8
Panel1_production
 62
     7
100
AcDbText
 10
11060.74496540499
 20
4636.51931964118
 30
0.0
 40
7.619999999999999
  1
02/01/10
 50
73.97351713471596
  7
ROMANC
100
AcDbText
  0
LINE
  5
7A
330
2
100
AcDbEntity
  8
Panel1_production
 62
     7
100
AcDbLine
 10
11041.4253670378
 20
4545.473451298398
 30
0.0
 11
11104.11330066628
 21
4776.42313025246
 31
0.0
  0
TEXT
  5
7B
330
2
100
AcDbEntity
  8
Panel1_production
 62
     7
100
AcDbText
 10
11275.72449873659
 20
4573.245137509696
 30
-609.6
 40
7.619999999999999
  1
03/01/10
 50
73.97351713471596
  7
ROMANC
100
AcDbText
  0
LINE
  5
7C
330
2
100
AcDbEntity
  8
Panel1_production
 62
     7
100
AcDbLine
 10
11319.43010731932
 20
4720.327654229978
 30
0.0
 11
11257.62822524563
 21
4489.152108848432
 31
0.0
  0
TEXT
  5
7D
330
2
100
AcDbEntity
  8
Panel1_production
 62
     7
100
AcDbText
 10
11607.01829874422
 20
4498.739083299748
 30
0.0
 40
7.619999999999999
  1
04/01/10
 50
73.97351713471596
  7
ROMANC
100
AcDbText
  0
TEXT
  5
7E
330
2
100
AcDbEntity
  8
Panel1_production
 62
     7
100
AcDbText
 10
11854.73044421696
 20
4418.311016156508
 30
4931.0544
 40
7.619999999999999
  1
05/01/10
 50
73.97351713471596
  7
ROMANC
100
AcDbText
  0
LINE
  5
7F
330
2
100
AcDbEntity
  8
Panel1_production
 62
     7
100
AcDbLine
 10
11906.68457801183
 20
4567.333006056002
 30
0.0
 11
11833.67722569357
 21
4339.088256017396
 31
0.0
  0
TEXT
  5
80
330
2
100
AcDbEntity
  8
Panel1_production
 62
     7
100
AcDbText
 10
12104.68215926404
 20
4353.494340566217
 30
0.0
 40
7.619999999999999
  1
05/26/10
 50
73.97351713471596
  7
ROMANC
100
AcDbText
  0
LINE
  5
81
330
2
100
AcDbEntity
  8
Panel1_production
 62
     7
100
AcDbLine
 10
12151.49683804853
 20
4503.55321767053
 30
0.0
 11
12091.17440560603
 21
4272.011409317004
 31
0.0
  0
LWPOLYLINE
  5
82
102
{ACAD_REACTORS
330
75
102
}
330
2
100
AcDbEntity
  8
Panel1_production
100
AcDbPolyline
 90
        4
 70
     1
 43
0.0
 10
10746.33345481967
 20
4869.633835246862
 10
10680.98984691991
 20
4639.367734324846
 10
10033.78787455988
 20
4807.9653385459
 10
10101.3793943916
 20
5037.660722440071
  0
TEXT
  5
83
102
{ACAD_REACTORS
330
75
102
}
330
2
100
AcDbEntity
  8
Panel1_production
 62
     7
100
AcDbText
 10
10414.90802537991
 20
4801.823646480324
 30
0.0
 40
7.619999999999999
  1
12/01/09
 50
73.97351713471596
  7
ROMANC
100
AcDbText
  0
LINE
  5
84
330
2
100
AcDbEntity
  8
Panel1_production
 62
     7
100
AcDbLine
 10
10391.63686524795
 20
4714.744852392362
 30
0.0
 11
10459.93260832566
 21
4944.248518180941
 31
0.0
  0
LINE
  5
85
330
2
100
AcDbEntity
  8
Panel1_production
 62
     7
100
AcDbLine
 10
10680.98984691991
 20
4639.367734324846
 30
0.0
 11
10746.33345481967
 21
4869.633835246862
 31
0.0
  0
LWPOLYLINE
  5
86
102
{ACAD_REACTORS
330
74
102
}
330
2
100
AcDbEntity
  8
Panel2_production
  6
Continuous
100
AcDbPolyline
 90
        8
 70
     1
 43
0.0
 10
10110.76339322174
 20
5421.247550170639
 10
10084.62059205186
 20
5331.820367286536
 10
10085.21205118396
 20
5331.647462382326
 10
10078.28385954879
 20
5307.950690354164
 10
10077.69669636182
 20
5308.12233939818
 10
10040.12714573411
 20
5179.607454821613
 10
10947.5542976175
 20
4943.199984919748
 10
11020.43445558088
 20
5184.255485461791
  0
TEXT
  5
87
102
{ACAD_REACTORS
330
74
102
}
330
2
100
AcDbEntity
  8
Panel2_production
  6
Continuous
 62
     7
100
AcDbText
 10
10073.36983785759
 20
5255.662284404923
 30
0.0
 40
7.619999999999999
  1
STARTED 08/24/10
 50
73.97351713471596
  7
ROMANC
100
AcDbText
  0
TEXT
  5
88
102
{ACAD_REACTORS
330
75
102
}
330
2
100
AcDbEntity
  8
Panel1_production
  6
Continuous
 62
     7
100
AcDbText
 10
10066.08201081234
 20
4870.905083957361
 30
0.0
 40
7.619999999999999
  1
STARTED 11/02/09
 50
73.97351713471596
  7
ROMANC
100
AcDbText
  0
TEXT
  5
89
102
{ACAD_REACTORS
330
74
102
}
330
2
100
AcDbEntity
  8
Panel2_production
  6
Continuous
 62
     7
100
AcDbText
 10
10409.10394237295
 20
5176.776463671457
 30
0.0
 40
7.619999999999999
  1
 10/01/10
 50
73.97351713471596
  7
ROMANC
100
AcDbText
  0
LINE
  5
8A
330
2
100
AcDbEntity
  8
Panel2_production
  6
Continuous
 62
     7
100
AcDbLine
 10
10461.49558038033
 20
5329.873042797034
 30
0.0
 11
10388.0253419078
 21
5088.970570405879
 31
0.0
  0
TEXT
  5
8B
102
{ACAD_REACTORS
330
74
102
}
330
2
100
AcDbEntity
  8
Panel2_production
  6
Continuous
 62
     7
100
AcDbText
 10
10138.78871886321
 20
5249.510232738234
 30
0.0
 40
7.619999999999999
  1
 09/01/10
 50
73.97351713471596
  7
ROMANC
100
AcDbText
  0
LINE
  5
8C
330
2
100
AcDbEntity
  8
Panel2_production
  6
Continuous
 62
     7
100
AcDbLine
 10
10193.38189301513
 20
5399.723364495663
 30
0.0
 11
10116.66729607132
 21
5159.666709026083
 31
0.0
  0
TEXT
  5
8D
102
{ACAD_REACTORS
330
74
102
}
330
2
100
AcDbEntity
  8
Panel2_production
  6
Continuous
 62
     7
100
AcDbText
 10
10637.71174016138
 20
5114.936581493325
 30
0.0
 40
7.619999999999999
  1
 11/01/10
 50
73.97351713471596
  7
ROMANC
100
AcDbText
  0
LINE
  5
8E
330
2
100
AcDbEntity
  8
Panel2_production
  6
Continuous
 62
     7
100
AcDbLine
 10
10690.67526693998
 20
5270.166002137102
 30
0.0
 11
10615.7256026907
 21
5029.649659745643
 31
0.0
  0
TEXT
  5
8F
102
{ACAD_REACTORS
330
74
102
}
330
2
100
AcDbEntity
  8
Panel2_production
  6
Continuous
 62
     7
100
AcDbText
 10
10763.89995030366
 20
5073.63105363105
 30
0.0
 40
7.619999999999999
  1
 12/01/10
 50
73.97351713471596
  7
ROMANC
100
AcDbText
  0
LINE
  5
90
330
2
100
AcDbEntity
  8
Panel2_production
  6
Continuous
 62
     7
100
AcDbLine
 10
10821.04519578742
 20
5236.201374820671
 30
0.0
 11
10740.20124787282
 21
4997.220640754061
 31
0.0
  0
TEXT
  5
91
102
{ACAD_REACTORS
330
74
102
}
330
2
100
AcDbEntity
  8
Panel2_production
  6
Continuous
 62
     7
100
AcDbText
 10
10970.2223899586
 20
5028.610931929299
 30
0.0
 40
7.619999999999999
  1
 01/01/11
 50
73.97351713471596
  7
ROMANC
100
AcDbText
  0
LINE
  5
92
330
2
100
AcDbEntity
  8
Panel2_production
  6
Continuous
 62
     7
100
AcDbLine
 10
11020.43445558088
 20
5184.255485461791
 30
0.0
 11
10947.5542976175
 21
4943.199984919748
 31
0.0
  0
TEXT
  5
93
102
{ACAD_REACTORS
330
94
102
}
330
2
100
AcDbEntity
  8
Panel2_production
  6
Continuous
 62
     7
100
AcDbText
 10
11222.40565310224
 20
4985.260023438168
 30
0.0
 40
7.619999999999999
  1
 02/01/11
 50
73.97351713471596
  7
ROMANC
100
AcDbText
  0
HATCH
  5
94
330
2
100
AcDbEntity
  8
Panel2_production
  6
Continuous
100
AcDbHatch
 10
0.0
 20
0.0
 30
0.0
210
0.0
220
0.0
230
1.0
  2
ANSI31
 70
     0
 71
     1
 91
        4
 92
        1
 93
        4
 72
     1
 10
11020.43445558088
 20
5184.255485461791
 11
11478.79382870094
 21
5064.841404144742
 72
     1
 10
11478.79382870094
 20
5064.841404144742
 11
11415.35221638724
 21
4821.3269263805
 72
     1
 10
11415.35221638724
 20
4821.3269263805
 11
10947.5542976175
 21
4943.199984919748
 72
     1
 10
10947.5542976175
 20
4943.199984919748
 11
11020.43445558088
 21
5184.255485461791
 97
        1
330
73
 92
       24
 93
        4
 72
     1
 10
11229.23982028141
 20
4989.33742104106
 11
11245.56886573715
 21
5046.184389235255
 72
     1
 10
11245.56886573715
 20
5046.184389235255
 11
11228.82865424438
 21
5050.992942498294
 72
     1
 10
11228.82865424438
 20
5050.992942498294
 11
11212.49960878864
 21
4994.145974304098
 72
     1
 10
11212.49960878864
 20
4994.145974304098
 11
11229.23982028141
 21
4989.33742104106
 97
        1
330
93
 92
       24
 93
        4
 72
     1
 10
11394.45724797131
 20
4936.993046356649
 11
11410.78629342705
 21
4993.840014550845
 72
     1
 10
11410.78629342705
 20
4993.840014550845
 11
11394.04608193428
 21
4998.648567813884
 72
     1
 10
11394.04608193428
 20
4998.648567813884
 11
11377.71703647855
 21
4941.801599619687
 72
     1
 10
11377.71703647855
 20
4941.801599619687
 11
11394.45724797131
 21
4936.993046356649
 97
        1
330
96
 92
       25
 93
        4
 72
     1
 10
11443.65042665178
 20
4923.441745829716
 11
11460.28000668645
 21
4981.334977242211
 72
     1
 10
11460.28000668645
 20
4981.334977242211
 11
11443.53979519368
 21
4986.143530505248
 72
     1
 10
11443.53979519368
 20
4986.143530505248
 11
11426.91021515901
 21
4928.250299092754
 72
     1
 10
11426.91021515901
 20
4928.250299092754
 11
11443.65042665178
 21
4923.441745829716
 97
        1
330
98
 75
     0
 76
     1
 52
0.0
 41
18.288
 77
     0
 78
     1
 53
45.0
 43
0.0
 44
0.0
 45
-1.616446101792446
 46
1.616446101792446
 79
     0
 98
        3
 10
0.0
 20
0.0
 10
0.0
 20
0.0
 10
0.0
 20
0.0
1001
ACAD
1010
0.0
1020
0.0
1030
0.0
  0
LINE
  5
95
330
2
100
AcDbEntity
  8
Panel2_production
  6
Continuous
 62
     7
100
AcDbLine
 10
11272.32564261084
 20
5118.631530864187
 30
0.0
 11
11195.90652188872
 21
4878.500034736863
 31
0.0
  0
TEXT
  5
96
102
{ACAD_REACTORS
330
94
102
}
330
2
100
AcDbEntity
  8
Panel2_production
  6
Continuous
 62
     7
100
AcDbText
 10
11387.62308079215
 20
4932.915648753759
 30
2471.928000000001
 40
7.619999999999999
  1
 02/17/11
 50
73.97351713471596
  7
ROMANC
100
AcDbText
  0
LINE
  5
97
330
2
100
AcDbEntity
  8
Panel2_production
  6
Continuous
100
AcDbLine
 10
11478.79382869951
 20
5064.841404145219
 30
0.0
 11
11415.35221638579
 21
4821.326926380884
 31
0.0
  0
TEXT
  5
98
102
{ACAD_REACTORS
330
94
102
}
330
2
100
AcDbEntity
  8
Panel2_production
  6
Continuous
 62
     7
100
AcDbText
 10
11436.81625947261
 20
4919.364348226826
 30
2471.928000000001
 40
7.619999999999999
  1
 03/25/11
 50
73.97351713471596
  7
ROMANC
100
AcDbText
  0
LINE
  5
99
330
2
100
AcDbEntity
  8
Panel2_production
  6
Continuous
 62
     0
100
AcDbLine
 10
11415.35221638724
 20
4821.326926380506
 30
0.0
 11
11478.79382870094
 21
5064.841404144742
 31
0.0
  0
HATCH
  5
9A
330
2
100
AcDbEntity
  8
Panel2_production
  6
Continuous
100
AcDbHatch
 10
0.0
 20
0.0
 30
0.0
210
0.0
220
0.0
230
1.0
  2
ANSI31
 70
     0
 71
     1
 91
        5
 92
        1
 93
        4
 72
     1
 10
11774.96010359923
 20
4987.650293484231
 11
12127.69384212706
 21
4895.786720169731
 72
     1
 10
12127.69384212706
 20
4895.786720169731
 11
12056.87836602404
 21
4654.193318358315
 72
     1
 10
12056.87836602404
 20
4654.193318358315
 11
11711.48677246032
 21
4744.177231192177
 72
     1
 10
11711.48677246032
 20
4744.177231192177
 11
11774.96010359923
 21
4987.650293484231
 97
        1
330
9B
 92
       24
 93
        4
 72
     1
 10
11743.29928704313
 20
4800.85881438614
 11
11780.36521844571
 21
4929.897944642902
 72
     1
 10
11780.36521844571
 20
4929.897944642902
 11
11763.62500695294
 21
4934.706497905939
 72
     1
 10
11763.62500695294
 20
4934.706497905939
 11
11726.55907555036
 21
4805.667367649178
 72
     1
 10
11726.55907555036
 20
4805.667367649178
 11
11743.29928704313
 21
4800.85881438614
 97
        1
330
9D
 92
       24
 93
        4
 72
     1
 10
11884.21386074997
 20
4800.24335071283
 11
11900.54290620571
 21
4857.090318907026
 72
     1
 10
11900.54290620571
 20
4857.090318907026
 11
11883.80269471294
 21
4861.898872170065
 72
     1
 10
11883.80269471294
 20
4861.898872170065
 11
11867.47364925721
 21
4805.051903975869
 72
     1
 10
11867.47364925721
 20
4805.051903975869
 11
11884.21386074997
 21
4800.24335071283
 97
        1
330
9C
 92
       24
 93
        4
 72
     1
 10
12026.64440527487
 20
4760.284212808443
 11
12042.97345073061
 21
4817.13118100264
 72
     1
 10
12042.97345073061
 20
4817.13118100264
 11
12026.23323923784
 21
4821.939734265677
 72
     1
 10
12026.23323923784
 20
4821.939734265677
 11
12009.9041937821
 21
4765.092766071481
 72
     1
 10
12009.9041937821
 20
4765.092766071481
 11
12026.64440527487
 21
4760.284212808443
 97
        1
330
9F
 92
       25
 93
        4
 72
     1
 10
12086.02527562683
 20
4742.781864479274
 11
12102.35432108256
 21
4799.62883267347
 72
     1
 10
12102.35432108256
 20
4799.62883267347
 11
12085.61410958979
 21
4804.437385936508
 72
     1
 10
12085.61410958979
 20
4804.437385936508
 11
12069.28506413406
 21
4747.590417742311
 72
     1
 10
12069.28506413406
 20
4747.590417742311
 11
12086.02527562683
 21
4742.781864479274
 97
        1
330
A1
 75
     0
 76
     1
 52
0.0
 41
18.288
 77
     0
 78
     1
 53
45.0
 43
0.0
 44
0.0
 45
-1.616446101792446
 46
1.616446101792446
 79
     0
 98
        3
 10
0.0
 20
0.0
 10
0.0
 20
0.0
 10
0.0
 20
0.0
1001
ACAD
1010
0.0
1020
0.0
1030
0.0
  0
LWPOLYLINE
  5
9B
102
{ACAD_REACTORS
330
9A
102
}
330
2
100
AcDbEntity
  8
Panel2_production
  6
Continuous
100
AcDbPolyline
 90
        4
 70
     1
 43
0.0
 10
11774.96010359923
 20
4987.650293484231
 10
12127.69384212706
 20
4895.786720169731
 10
12056.87836602404
 20
4654.193318358315
 10
11711.48677246032
 20
4744.177231192177
  0
TEXT
  5
9C
102
{ACAD_REACTORS
330
9A
330
A3
102
}
330
2
100
AcDbEntity
  8
Panel2_production
  6
Continuous
 62
     7
100
AcDbText
 10
11877.3796935708
 20
4796.165953109938
 30
0.0
 40
7.619999999999999
  1
 05/01/11
 50
73.97351713471596
  7
ROMANC
100
AcDbText
  0
TEXT
  5
9D
102
{ACAD_REACTORS
330
9A
330
A3
102
}
330
2
100
AcDbEntity
  8
Panel2_production
  6
Continuous
 62
     7
100
AcDbText
 10
11738.56886191654
 20
4804.105259311334
 30
0.0
 40
7.619999999999999
  1
STARTED 04/06/2011
 50
73.97351713471596
  7
ROMANC
100
AcDbText
  0
LINE
  5
9E
330
2
100
AcDbEntity
  8
Panel2_production
  6
Continuous
 62
     7
100
AcDbLine
 10
11927.41967906381
 20
4947.963148963872
 30
0.0
 11
11854.83450840921
 21
4706.830796847706
 31
0.0
  0
TEXT
  5
9F
102
{ACAD_REACTORS
330
A3
330
9A
102
}
330
2
100
AcDbEntity
  8
Panel2_production
  6
Continuous
 62
     7
100
AcDbText
 10
12019.8102380957
 20
4756.206815205551
 30
0.0
 40
7.619999999999999
  1
 05/31/11
 50
73.97351713471596
  7
ROMANC
100
AcDbText
  0
LINE
  5
A0
330
2
100
AcDbEntity
  8
Panel2_production
  6
Continuous
 62
     7
100
AcDbLine
 10
12066.00248710393
 20
4911.858861195556
 30
0.0
 11
11995.23277191708
 21
4670.253156911299
 31
0.0
  0
TEXT
  5
A1
102
{ACAD_REACTORS
330
9A
102
}
330
2
100
AcDbEntity
  8
Panel2_production
  6
Continuous
 62
     7
100
AcDbText
 10
12079.19110844765
 20
4738.704466876384
 30
0.0
 40
7.619999999999999
  1
 06/21/11
 50
73.97351713471596
  7
ROMANC
100
AcDbText
  0
LINE
  5
A2
330
2
100
AcDbEntity
  8
Panel2_production
  6
Continuous
 62
     7
100
AcDbLine
 10
12127.69384195164
 20
4895.786720215453
 30
0.0
 11
12056.87836602404
 21
4654.193318358315
 31
0.0
  0
HATCH
  5
A3
330
2
100
AcDbEntity
  8
Panel3_production
  6
Continuous
100
AcDbHatch
 10
0.0
 20
0.0
 30
0.00000097536
210
0.0
220
0.0
230
1.0
  2
ANSI31
 70
     0
 71
     1
 91
       10
 92
        1
 93
        4
 72
     1
 10
10063.32339815859
 20
5821.338677025561
 11
10803.14547493472
 21
5627.643442353282
 72
     1
 10
10803.14547493472
 20
5627.643442353282
 11
10733.77989367389
 21
5384.928082485969
 72
     1
 10
10733.77989367389
 20
5384.928082485969
 11
9992.200368134113
 21
5578.069978592342
 72
     1
 10
9992.200368134113
 20
5578.069978592342
 11
10063.32339815859
 21
5821.338677025561
 97
        1
330
A4
 92
        9
 93
        4
 72
     1
 10
11743.29928704313
 20
4800.85881438614
 11
11780.36521844571
 21
4929.897944642902
 72
     1
 10
11780.36521844571
 20
4929.897944642902
 11
11763.62500695294
 21
4934.706497905939
 72
     1
 10
11763.62500695294
 20
4934.706497905939
 11
11726.55907555036
 21
4805.667367649178
 72
     1
 10
11726.55907555036
 20
4805.667367649178
 11
11743.29928704313
 21
4800.85881438614
 97
        1
330
9D
 92
        9
 93
        4
 72
     1
 10
11884.21386074997
 20
4800.24335071283
 11
11900.54290620571
 21
4857.090318907026
 72
     1
 10
11900.54290620571
 20
4857.090318907026
 11
11883.80269471294
 21
4861.898872170065
 72
     1
 10
11883.80269471294
 20
4861.898872170065
 11
11867.47364925721
 21
4805.051903975869
 72
     1
 10
11867.47364925721
 20
4805.051903975869
 11
11884.21386074997
 21
4800.24335071283
 97
        1
330
9C
 92
        9
 93
        4
 72
     1
 10
12026.64440527487
 20
4760.284212808443
 11
12042.97345073061
 21
4817.13118100264
 72
     1
 10
12042.97345073061
 20
4817.13118100264
 11
12026.23323923784
 21
4821.939734265677
 72
     1
 10
12026.23323923784
 20
4821.939734265677
 11
12009.9041937821
 21
4765.092766071481
 72
     1
 10
12009.9041937821
 20
4765.092766071481
 11
12026.64440527487
 21
4760.284212808443
 97
        1
330
9F
 92
       24
 93
        4
 72
     1
 10
10025.61431510258
 20
5638.690803922275
 11
10058.67311878597
 21
5753.779757935064
 72
     1
 10
10058.67311878597
 20
5753.779757935064
 11
10041.9329072932
 21
5758.588311198103
 72
     1
 10
10041.9329072932
 20
5758.588311198103
 11
10008.87410360981
 21
5643.499357185314
 72
     1
 10
10008.87410360981
 20
5643.499357185314
 11
10025.61431510258
 21
5638.690803922275
 97
        1
330
A5
 92
       24
 93
        4
 72
     1
 10
10161.70401354921
 20
5626.211532907537
 11
10178.03305900494
 21
5683.058501101734
 72
     1
 10
10178.03305900494
 20
5683.058501101734
 11
10161.29284751217
 21
5687.867054364771
 72
     1
 10
10161.29284751217
 20
5687.867054364771
 11
10144.96380205644
 21
5631.020086170575
 72
     1
 10
10144.96380205644
 20
5631.020086170575
 11
10161.70401354921
 21
5626.211532907537
 97
        1
330
A6
 92
       24
 93
        4
 72
     1
 10
10396.98534627718
 20
5569.854508855688
 11
10413.31439173291
 21
5626.701477049884
 72
     1
 10
10413.31439173291
 20
5626.701477049884
 11
10396.57418024014
 21
5631.510030312922
 72
     1
 10
10396.57418024014
 20
5631.510030312922
 11
10380.24513478441
 21
5574.663062118726
 72
     1
 10
10380.24513478441
 20
5574.663062118726
 11
10396.98534627718
 21
5569.854508855688
 97
        1
330
A8
 92
       24
 93
        4
 72
     1
 10
10590.70558694321
 20
5516.189905526844
 11
10606.73409782
 21
5571.990610502742
 72
     1
 10
10606.73409782
 20
5571.990610502742
 11
10589.99388632723
 21
5576.79916376578
 72
     1
 10
10589.99388632723
 20
5576.79916376578
 11
10573.96537545044
 21
5520.998458789882
 72
     1
 10
10573.96537545044
 20
5520.998458789882
 11
10590.70558694321
 21
5516.189905526844
 97
        1
330
AA
 92
       24
 93
        4
 72
     1
 10
10692.12154583379
 20
5490.261386207389
 11
10708.15005671058
 21
5546.062091183287
 72
     1
 10
10708.15005671058
 20
5546.062091183287
 11
10691.40984521781
 21
5550.870644446324
 72
     1
 10
10691.40984521781
 20
5550.870644446324
 11
10675.38133434102
 21
5495.069939470427
 72
     1
 10
10675.38133434102
 20
5495.069939470427
 11
10692.12154583379
 21
5490.261386207389
 97
        1
330
AC
 92
       25
 93
        4
 72
     1
 10
10758.81317556425
 20
5469.548725144296
 11
10774.84168644104
 21
5525.349430120193
 72
     1
 10
10774.84168644104
 20
5525.349430120193
 11
10758.10147494827
 21
5530.157983383231
 72
     1
 10
10758.10147494827
 20
5530.157983383231
 11
10742.07296407148
 21
5474.357278407333
 72
     1
 10
10742.07296407148
 20
5474.357278407333
 11
10758.81317556425
 21
5469.548725144296
 97
        1
330
AE
 75
     0
 76
     1
 52
0.0
 41
18.288
 77
     0
 78
     1
 53
45.0
 43
0.0
 44
0.0
 45
-1.616446101792446
 46
1.616446101792446
 79
     0
 98
        9
 10
0.0
 20
0.0
 10
0.0
 20
0.0
 10
0.0
 20
0.0
 10
0.0
 20
0.0
 10
0.0
 20
0.0
 10
0.0
 20
0.0
 10
-1702.616906348487
 20
823.6111711588991
 10
-1702.616906348487
 20
823.6111711588991
 10
-1702.616906348487
 20
823.6111711588991
1001
ACAD
1010
0.0
1020
0.0
1030
0.0
  0
LWPOLYLINE
  5
A4
102
{ACAD_REACTORS
330
A3
102
}
330
2
100
AcDbEntity
  8
Panel3_production
  6
Continuous
100
AcDbPolyline
 90
        4
 70
     1
 43
0.0
 38
0.00000097536
 10
10063.32339815859
 20
5821.338677025561
 10
10803.14547493472
 20
5627.643442353282
 10
10733.77989367389
 20
5384.928082485969
 10
9992.200368134113
 20
5578.069978592342
  0
TEXT
  5
A5
102
{ACAD_REACTORS
330
A3
102
}
330
2
100
AcDbEntity
  8
Panel3_production
  6
Continuous
 62
     7
100
AcDbText
 10
10020.88388997599
 20
5641.937248847472
 30
0.00000097536
 40
7.619999999999999
  1
STARTED 07/09/11
 50
73.97351713471596
  7
ROMANC
100
AcDbText
  0
TEXT
  5
A6
102
{ACAD_REACTORS
330
A3
102
}
330
2
100
AcDbEntity
  8
Panel3_production
  6
Continuous
 62
     7
100
AcDbText
 10
10154.86984637004
 20
5622.134135304646
 30
0.0
 40
7.619999999999999
  1
 08/01/11
 50
73.97351713471596
  7
ROMANC
100
AcDbText
  0
LINE
  5
A7
330
2
100
AcDbEntity
  8
Panel3_production
  6
Continuous
 62
     7
100
AcDbLine
 10
10133.86299221901
 20
5541.219066305527
 30
0.00000097536
 11
10209.24937906445
 21
5783.435090774098
 31
0.00000097536
  0
TEXT
  5
A8
102
{ACAD_REACTORS
330
A3
102
}
330
2
100
AcDbEntity
  8
Panel3_production
  6
Continuous
 62
     7
100
AcDbText
 10
10390.15117909801
 20
5565.777111252798
 30
0.0
 40
7.619999999999999
  1
 09/01/11
 50
73.97351713471596
  7
ROMANC
100
AcDbText
  0
LINE
  5
A9
330
2
100
AcDbEntity
  8
Panel3_production
  6
Continuous
 62
     7
100
AcDbLine
 10
10365.9925142204
 20
5480.744703170763
 30
0.00000097536
 11
10440.10322024717
 21
5722.915539226697
 31
0.00000097536
  0
TEXT
  5
AA
102
{ACAD_REACTORS
330
A3
102
}
330
2
100
AcDbEntity
  8
Panel3_production
  6
Continuous
 62
     7
100
AcDbText
 10
10583.87141976404
 20
5512.112507923954
 30
2481.07200097536
 40
7.619999999999999
  1
 10/01/11
 50
73.97351713471596
  7
ROMANC
100
AcDbText
  0
LINE
  5
AB
330
2
100
AcDbEntity
  8
Panel3_production
  6
Continuous
 62
     7
100
AcDbLine
 10
10564.79189912709
 20
5428.952565999892
 30
0.00000097536
 11
10635.91065826919
 21
5671.713079309763
 31
0.00000097536
  0
TEXT
  5
AC
102
{ACAD_REACTORS
330
A3
102
}
330
2
100
AcDbEntity
  8
Panel3_production
  6
Continuous
 62
     7
100
AcDbText
 10
10685.28737865462
 20
5486.183988604499
 30
0.0
 40
7.619999999999999
  1
 10/18/11
 50
73.97351713471596
  7
ROMANC
100
AcDbText
  0
LINE
  5
AD
330
2
100
AcDbEntity
  8
Panel3_production
  6
Continuous
 62
     7
100
AcDbLine
 10
10663.08661496355
 20
5403.345053239962
 30
0.00000097536
 11
10737.83988435994
 21
5644.964262610145
 31
0.00000097536
  0
TEXT
  5
AE
102
{ACAD_REACTORS
330
A3
102
}
330
2
100
AcDbEntity
  8
Panel3_production
  6
Continuous
 62
     7
100
AcDbText
 10
10751.97900838508
 20
5465.471327541405
 30
0.0
 40
7.619999999999999
  1
 11/28/11
 50
73.97351713471596
  7
ROMANC
100
AcDbText
  0
LINE
  5
AF
330
2
100
AcDbEntity
  8
Panel3_production
  6
Continuous
 62
     7
100
AcDbLine
 10
10733.77989367389
 20
5384.928082485969
 30
0.00000097536
 11
10803.14547493472
 21
5627.643442353282
 31
0.00000097536
  0
TEXT
  5
B0
102
{ACAD_REACTORS
330
6B
102
}
330
2
100
AcDbEntity
  8
Panel3_production
  6
Continuous
 62
     7
100
AcDbText
 10
10994.78335857408
 20
5440.906043247562
 30
0.00000097536
 40
7.619999999999997
  1
STARTED 02/17/12
 50
75.40524696054878
  7
ROMANC
100
AcDbText
  0
TEXT
  5
B1
102
{ACAD_REACTORS
330
6B
102
}
330
2
100
AcDbEntity
  8
Panel3_production
  6
Continuous
 62
     7
100
AcDbText
 10
11144.27120508671
 20
5421.18585230575
 30
0.00000097536
 40
7.619999999999997
  1
 03/01/12
 50
75.40524696054878
  7
ROMANC
100
AcDbText
  0
LINE
  5
B2
330
2
100
AcDbEntity
  8
Panel3_production
  6
Continuous
 62
     7
100
AcDbLine
 10
11178.90848790591
 20
5529.003297242962
 30
0.0
 11
11140.38486932718
 21
5393.201797280692
 31
0.0
  0
TEXT
  5
B3
102
{ACAD_REACTORS
330
6B
102
}
330
2
100
AcDbEntity
  8
Panel3_production
  6
Continuous
 62
     7
100
AcDbText
 10
11413.79554168058
 20
5348.947160220625
 30
0.00000097536
 40
7.619999999999997
  1
 04/01/12
 50
75.40524696054878
  7
ROMANC
100
AcDbText
  0
LINE
  5
B4
330
2
100
AcDbEntity
  8
Panel3_production
  6
Continuous
 62
     7
100
AcDbLine
 10
11447.02241324354
 20
5459.153627238169
 30
0.0
 11
11410.56353411857
 21
5322.8141858394
 31
0.0
  0
TEXT
  5
B5
102
{ACAD_REACTORS
330
6B
102
}
330
2
100
AcDbEntity
  8
Panel3_production
  6
Continuous
 62
     7
100
AcDbText
 10
11778.37299681541
 20
5256.937680335279
 30
-761.9999990246401
 40
7.619999999999997
  1
 05/1/12
 50
75.40524696054878
  7
ROMANC
100
AcDbText
  0
LINE
  5
B6
330
2
100
AcDbEntity
  8
Panel3_production
  6
Continuous
 62
     7
100
AcDbLine
 10
11807.15772107093
 20
5365.311441971363
 30
0.0
 11
11776.00910142133
 21
5227.594511855198
 31
0.0
  0
LWPOLYLINE
  5
B7
102
{ACAD_REACTORS
330
6B
102
}
330
2
100
AcDbEntity
  8
Panel3_production
  6
Continuous
100
AcDbPolyline
 90
        4
 70
     1
 43
0.0
 10
11018.89140216018
 20
5570.691739190944
 10
12044.88225330216
 20
5303.342314380678
 10
12009.32148915172
 20
5166.824167541547
 10
10983.31834062491
 20
5434.148833078715
  0
LINE
  5
B8
330
2
100
AcDbEntity
  8
Panel3_production
  6
Continuous
 62
     7
100
AcDbLine
 10
12044.88225330216
 20
5303.342314380678
 30
0.0
 11
12009.31347766007
 21
5166.793417989566
 31
0.0
  0
HATCH
  5
B9
330
2
100
AcDbEntity
  8
Panel4_production
  6
Continuous
100
AcDbHatch
 10
0.0
 20
0.0
 30
0.0
210
0.0
220
0.0
230
1.0
  2
ANSI31
 70
     0
 71
     1
 91
        6
 92
        1
 93
        4
 72
     1
 10
10276.64700537331
 20
6288.095060171573
 11
10750.96717615212
 21
6164.647871969707
 72
     1
 10
10750.96717615212
 20
6164.647871969707
 11
10683.24570429294
 21
5904.705455231007
 72
     1
 10
10683.24570429294
 20
5904.705455231007
 11
10205.27997298804
 21
6029.227429090919
 72
     1
 10
10205.27997298804
 20
6029.227429090919
 11
10276.64700537331
 21
6288.095060171573
 97
        1
330
C0
 92
       24
 93
        4
 72
     1
 10
10238.64396889126
 20
6092.36950519848
 11
10268.72542933852
 21
6207.897381217041
 72
     1
 10
10268.72542933852
 20
6207.897381217041
 11
10251.87029849083
 21
6212.286165719985
 72
     1
 10
10251.87029849083
 20
6212.286165719985
 11
10221.78883804357
 21
6096.758289701424
 72
     1
 10
10221.78883804357
 20
6096.758289701424
 11
10238.64396889126
 21
6092.36950519848
 97
        1
330
BE
 92
       24
 93
        4
 72
     1
 10
10349.98151126709
 20
6084.873133600899
 11
10365.24540154527
 21
6143.891226196102
 72
     1
 10
10365.24540154527
 20
6143.891226196102
 11
10348.38308937521
 21
6148.252337704151
 72
     1
 10
10348.38308937521
 20
6148.252337704151
 11
10333.11919909704
 21
6089.234245108946
 72
     1
 10
10333.11919909704
 20
6089.234245108946
 11
10349.98151126709
 21
6084.873133600899
 97
        1
330
BD
 92
       24
 93
        4
 72
     1
 10
10518.18466070552
 20
6049.05957204951
 11
10533.72112045294
 21
6109.131559155343
 72
     1
 10
10533.72112045294
 20
6109.131559155343
 11
10516.85880828288
 21
6113.49267066339
 72
     1
 10
10516.85880828288
 20
6113.49267066339
 11
10501.32234853546
 21
6053.420683557559
 72
     1
 10
10501.32234853546
 20
6053.420683557559
 11
10518.18466070552
 21
6049.05957204951
 97
        1
330
C1
 92
       24
 93
        4
 72
     1
 10
10678.61957402419
 20
6003.113808955991
 11
10693.88346430236
 21
6062.131901551193
 72
     1
 10
10693.88346430236
 20
6062.131901551193
 11
10677.02115213231
 21
6066.493013059243
 72
     1
 10
10677.02115213231
 20
6066.493013059243
 11
10661.75726185414
 21
6007.47492046404
 72
     1
 10
10661.75726185414
 20
6007.47492046404
 11
10678.61957402419
 21
6003.113808955991
 97
        1
330
C3
 92
       25
 93
        4
 72
     1
 10
10710.56339951403
 20
5992.322264383183
 11
10725.55472032294
 21
6050.286462467759
 72
     1
 10
10725.55472032294
 20
6050.286462467759
 11
10708.69240815289
 21
6054.647573975805
 72
     1
 10
10708.69240815289
 20
6054.647573975805
 11
10693.70108734397
 21
5996.683375891231
 72
     1
 10
10693.70108734397
 20
5996.683375891231
 11
10710.56339951403
 21
5992.322264383183
 97
        1
330
C5
 75
     1
 76
     1
 52
0.0
 41
18.288
 77
     0
 78
     1
 53
45.0
 43
0.0
 44
0.0
 45
-1.616446101792446
 46
1.616446101792446
 79
     0
 98
        1
 10
0.0
 20
0.0
1001
GradientColor1ACI
1070
     5
1001
GradientColor2ACI
1070
     2
1001
ACAD
1010
0.0
1020
0.0
1030
0.0
  0
TEXT
  5
BD
102
{ACAD_REACTORS
330
B9
102
}
330
2
100
AcDbEntity
  8
Panel4_production
  6
Continuous
 62
     7
100
AcDbText
 10
10343.25833487794
 20
6080.615210223811
 30
0.0
 40
7.619999999999997
  1
 07/01/12
 50
75.4992959343774
  7
ROMANC
100
AcDbText
  0
TEXT
  5
BE
102
{ACAD_REACTORS
330
B9
102
}
330
2
100
AcDbEntity
  8
Panel4_production
  6
Continuous
 62
     7
100
AcDbText
 10
10233.83390555375
 20
6095.496743152285
 30
0.00000097536
 40
7.619999999999997
  1
STARTED 06/11/12
 50
75.40524696054878
  7
ROMANC
100
AcDbText
  0
LINE
  5
BF
330
2
100
AcDbEntity
  8
Panel4_production
  6
Continuous
 62
     7
100
AcDbLine
 10
10401.84553184507
 20
6255.508190258929
 30
0.0
 11
10321.75937922359
 21
5998.881643549176
 31
0.0
  0
LWPOLYLINE
  5
C0
102
{ACAD_REACTORS
330
B9
102
}
330
2
100
AcDbEntity
  8
Panel4_production
  6
Continuous
100
AcDbPolyline
 90
        4
 70
     1
 43
0.0
 10
10276.64700537331
 20
6288.095060171573
 10
10750.96717615212
 20
6164.647871969707
 10
10683.24570429294
 20
5904.705455231007
 10
10205.27997298804
 20
6029.227429090919
  0
TEXT
  5
C1
102
{ACAD_REACTORS
330
B9
102
}
330
2
100
AcDbEntity
  8
Panel4_production
  6
Continuous
 62
     7
100
AcDbText
 10
10511.46148431636
 20
6044.801648672422
 30
0.0
 40
7.619999999999997
  1
 07/30/12
 50
75.4992959343774
  7
ROMANC
100
AcDbText
  0
LINE
  5
C2
330
2
100
AcDbEntity
  8
Panel4_production
  6
Continuous
 62
     0
100
AcDbLine
 10
10490.77387662971
 20
5954.849092994216
 30
0.0
 11
10571.75065547145
 21
6211.289695463785
 31
0.0
  0
TEXT
  5
C3
102
{ACAD_REACTORS
330
B9
102
}
330
2
100
AcDbEntity
  8
Panel4_production
  6
Continuous
 62
     7
100
AcDbText
 10
10671.89639763503
 20
5998.855885578905
 30
0.0
 40
7.619999999999997
  1
 09/01/12
 50
75.4992959343774
  7
ROMANC
100
AcDbText
  0
LINE
  5
C4
330
2
100
AcDbEntity
  8
Panel4_production
  6
Continuous
 62
     7
100
AcDbLine
 10
10724.54727707011
 20
6171.523757435144
 30
0.0
 11
10649.45936903907
 21
5913.507322194544
 31
0.0
  0
TEXT
  5
C5
102
{ACAD_REACTORS
330
B9
102
}
330
2
100
AcDbEntity
  8
Panel4_production
  6
Continuous
 62
     7
100
AcDbText
 10
10703.84022312487
 20
5988.064341006094
 30
0.0
 40
7.619999999999997
  1
 09/11/12
 50
75.4992959343774
  7
ROMANC
100
AcDbText
  0
LINE
  5
C6
330
2
100
AcDbEntity
  8
Panel4_production
  6
Continuous
 62
     7
100
AcDbLine
 10
10750.96717615212
 20
6164.647871969707
 30
0.0
 11
10683.24570429294
 21
5904.705455231007
 31
0.0
  0
HATCH
  5
C7
330
2
100
AcDbEntity
  8
Panel4_production
  6
Continuous
100
AcDbHatch
 10
0.0
 20
0.0
 30
0.0
210
0.0
220
0.0
230
1.0
  2
ANSI31
 70
     0
 71
     1
 91
        5
 92
        1
 93
        4
 72
     1
 10
10894.4451020386
 20
6127.307162145203
 11
11346.94276197177
 21
6009.542818177759
 72
     1
 10
11346.94276197177
 20
6009.542818177759
 11
11267.0942947985
 21
5752.598360175059
 72
     1
 10
11267.0942947985
 20
5752.598360175059
 11
10820.81507904256
 21
5868.865207772829
 72
     1
 10
10820.81507904256
 20
5868.865207772829
 11
10894.4451020386
 21
6127.307162145203
 97
        1
330
C9
 92
       24
 93
        4
 72
     1
 10
10859.21831588738
 20
5940.775689974588
 11
10889.84837439751
 21
6058.410457349112
 72
     1
 10
10889.84837439751
 20
6058.410457349112
 11
10872.99324354982
 21
6062.799241852055
 72
     1
 10
10872.99324354982
 20
6062.799241852055
 11
10842.36318503969
 21
5945.164474477534
 72
     1
 10
10842.36318503969
 20
5945.164474477534
 11
10859.21831588738
 21
5940.775689974588
 97
        1
330
C8
 92
       24
 93
        4
 72
     1
 10
10886.98579082612
 20
5952.660819728452
 11
10902.07223755499
 21
6010.600332017396
 72
     1
 10
10902.07223755499
 20
6010.600332017396
 11
10885.2171067073
 21
6014.989116520339
 72
     1
 10
10885.2171067073
 20
6014.989116520339
 11
10870.13065997843
 21
5957.049604231396
 72
     1
 10
10870.13065997843
 20
5957.049604231396
 11
10886.98579082612
 21
5952.660819728452
 97
        1
330
CA
 92
       24
 93
        4
 72
     1
 10
11116.35842627465
 20
5890.873576868624
 11
11131.17057397209
 21
5947.759643479588
 72
     1
 10
11131.17057397209
 20
5947.759643479588
 11
11114.31544312439
 21
5952.148427982532
 72
     1
 10
11114.31544312439
 20
5952.148427982532
 11
11099.50329542696
 21
5895.262361371568
 72
     1
 10
11099.50329542696
 20
5895.262361371568
 11
11116.35842627465
 21
5890.873576868624
 97
        1
330
CC
 92
       25
 93
        4
 72
     1
 10
11298.69036064329
 20
5836.861274969864
 11
11313.77680737216
 21
5894.800787258809
 72
     1
 10
11313.77680737216
 20
5894.800787258809
 11
11296.92167652447
 21
5899.189571761752
 72
     1
 10
11296.92167652447
 20
5899.189571761752
 11
11281.8352297956
 21
5841.250059472809
 72
     1
 10
11281.8352297956
 20
5841.250059472809
 11
11298.69036064329
 21
5836.861274969864
 97
        1
330
CE
 75
     1
 76
     1
 52
0.0
 41
18.288
 77
     0
 78
     1
 53
45.0
 43
0.0
 44
0.0
 45
-1.616446101792446
 46
1.616446101792446
 79
     0
 98
        1
 10
0.0
 20
0.0
1001
GradientColor1ACI
1070
     5
1001
GradientColor2ACI
1070
     2
1001
ACAD
1010
0.0
1020
0.0
1030
0.0
  0
TEXT
  5
C8
102
{ACAD_REACTORS
330
C7
102
}
330
2
100
AcDbEntity
  8
Panel4_production
  6
Continuous
 62
     7
100
AcDbText
 10
10854.40825254987
 20
5943.902927928395
 30
0.0
 40
7.619999999999997
  1
STARTED 09/26/12
 50
75.40524696054878
  7
ROMANC
100
AcDbText
  0
LWPOLYLINE
  5
C9
102
{ACAD_REACTORS
330
C7
102
}
330
2
100
AcDbEntity
  8
Panel4_production
  6
Continuous
100
AcDbPolyline
 90
        4
 70
     1
 43
0.0
 10
10894.4451020386
 20
6127.307162145203
 10
11346.94276197177
 20
6009.542818177759
 10
11267.0942947985
 20
5752.598360175059
 10
10820.81507904256
 20
5868.865207772829
  0
TEXT
  5
CA
102
{ACAD_REACTORS
330
C7
102
}
330
2
100
AcDbEntity
  8
Panel4_production
  6
Continuous
 62
     7
100
AcDbText
 10
10880.25563426857
 20
5948.413937936392
 30
0.0
 40
7.619999999999997
  1
 10/01/12
 50
75.40524696054878
  7
ROMANC
100
AcDbText
  0
LINE
  5
CB
330
2
100
AcDbEntity
  8
Panel4_production
  6
Continuous
 62
     7
100
AcDbLine
 10
10930.43039878018
 20
6117.90566149985
 30
0.0
 11
10855.0381130152
 21
5859.94925530462
 31
0.0
  0
TEXT
  5
CC
102
{ACAD_REACTORS
330
C7
102
}
330
2
100
AcDbEntity
  8
Panel4_production
  6
Continuous
 62
     7
100
AcDbText
 10
11109.6282697171
 20
5886.626695076564
 30
0.0
 40
7.619999999999997
  1
 11/01/12
 50
75.40524696054878
  7
ROMANC
100
AcDbText
  0
LINE
  5
CD
330
2
100
AcDbEntity
  8
Panel4_production
  6
Continuous
 62
     7
100
AcDbLine
 10
11162.58392393109
 20
6057.522950538372
 30
0.0
 11
11086.87160310412
 21
5799.550858721058
 31
0.0
  0
TEXT
  5
CE
102
{ACAD_REACTORS
330
C7
102
}
330
2
100
AcDbEntity
  8
Panel4_production
  6
Continuous
 62
     7
100
AcDbText
 10
11291.96020408574
 20
5832.614393177804
 30
0.0
 40
7.619999999999997
  1
 12/01/12
 50
75.40524696054878
  7
ROMANC
100
AcDbText
  0
LINE
  5
CF
330
2
100
AcDbEntity
  8
Panel4_production
  6
Continuous
 62
     7
100
AcDbLine
 10
11346.94276197177
 20
6009.542818177774
 30
0.0
 11
11267.0942947985
 21
5752.598360175059
 31
0.0
  0
LINE
  5
D0
330
2
100
AcDbEntity
  8
Panel1_production
 62
     7
100
AcDbLine
 10
11648.17141895444
 20
4634.876701637589
 30
0.0
 11
11586.36953688074
 21
4403.701156256043
 31
0.0
  0
ENDSEC
  0
SECTION
  2
OBJECTS
  0
DICTIONARY
  5
B
330
0
100
AcDbDictionary
281
     1
  3
ACAD_COLOR
350
45
  3
ACAD_GROUP
350
32
  3
ACAD_LAYOUT
350
18
  3
ACAD_MATERIAL
350
D
  3
ACAD_MLEADERSTYLE
350
48
  3
ACAD_MLINESTYLE
350
33
  3
ACAD_PLOTSETTINGS
350
34
  3
ACAD_PLOTSTYLENAME
350
A
  3
ACAD_SCALELIST
350
46
  3
ACAD_TABLESTYLE
350
47
  3
ACAD_VISUALSTYLE
350
2B
  3
ACDB_RECOMPOSE_DATA
350
D4
  3
AcDbVariableDictionary
350
49
  0
DICTIONARY
  5
1E
330
1D
100
AcDbDictionary
280
     1
281
     1
  3
ACAD_LAYERSTATES
360
1F
  0
DICTIONARY
  5
7
330
6
100
AcDbDictionary
280
     1
281
     1
  3
ADSK_XREC_LAYER_RECONCILED
360
8
  0
DICTIONARY
  5
3
330
2
100
AcDbDictionary
280
     1
281
     1
  3
ACAD_SORTENTS
360
D1
  0
DICTIONARY
  5
45
102
{ACAD_REACTORS
330
B
102
}
330
B
100
AcDbDictionary
281
     1
  0
DICTIONARY
  5
32
102
{ACAD_REACTORS
330
B
102
}
330
B
100
AcDbDictionary
281
     1
  0
DICTIONARY
  5
18
102
{ACAD_REACTORS
330
B
102
}
330
B
100
AcDbDictionary
281
     1
  3
Layout1
350
1C
  3
Model
350
17
  0
DICTIONARY
  5
D
102
{ACAD_REACTORS
330
B
102
}
330
B
100
AcDbDictionary
281
     1
  3
ByBlock
350
3D
  3
ByLayer
350
35
  3
Global
350
C
  0
DICTIONARY
  5
48
102
{ACAD_REACTORS
330
B
102
}
330
B
100
AcDbDictionary
281
     1
  0
DICTIONARY
  5
33
102
{ACAD_REACTORS
330
B
102
}
330
B
100
AcDbDictionary
281
     1
  3
Standard
350
53
  0
DICTIONARY
  5
34
102
{ACAD_REACTORS
330
B
102
}
330
B
100
AcDbDictionary
281
     1
  0
ACDBDICTIONARYWDFLT
  5
A
102
{ACAD_REACTORS
330
B
102
}
330
B
100
AcDbDictionary
281
     1
  3
Normal
350
9
100
AcDbDictionaryWithDefault
340
9
  0
DICTIONARY
  5
46
102
{ACAD_REACTORS
330
B
102
}
330
B
100
AcDbDictionary
281
     1
  3
*A1
350
58
  3
*A2
350
59
  3
A0
350
5A
  3
A1
350
5B
  3
A2
350
5C
  3
A3
350
5D
  3
A4
350
5E
  3
A5
350
5F
  3
A6
350
60
  3
A7
350
61
  3
A8
350
62
  3
A9
350
63
  3
B0
350
64
  3
B1
350
65
  3
B2
350
66
  3
B3
350
67
  3
B4
350
68
  3
B5
350
69
  3
B6
350
6A
  0
DICTIONARY
  5
47
102
{ACAD_REACTORS
330
B
102
}
330
B
100
AcDbDictionary
281
     1
  3
Standard
350
54
  0
DICTIONARY
  5
2B
102
{ACAD_REACTORS
330
B
102
}
330
B
100
AcDbDictionary
281
     1
  3
2dWireframe
350
2A
  3
Realistic
350
56
  3
Wireframe
350
57
  0
XRECORD
  5
D4
102
{ACAD_REACTORS
330
B
102
}
330
B
100
AcDbXrecord
280
     1
 90
        1
330
54
  0
DICTIONARY
  5
49
102
{ACAD_REACTORS
330
B
102
}
330
B
100
AcDbDictionary
281
     1
  3
CANNOSCALE
350
4A
  3
CMLEADERSTYLE
350
4B
  3
CTABLESTYLE
350
4C
  3
CVIEWDETAILSTYLE
350
4D
  3
CVIEWSECTIONSTYLE
350
4E
  3
LAYEREVAL
350
4F
  3
LAYERNOTIFY
350
50
  3
LIGHTINGUNITS
350
51
  3
MSLTSCALE
350
52
  0
DICTIONARY
  5
1F
102
{ACAD_REACTORS
330
1E
102
}
330
1E
100
AcDbDictionary
281
     1
  0
XRECORD
  5
8
102
{ACAD_REACTORS
330
7
102
}
330
7
100
AcDbXrecord
280
     1
290
     1
  0
SORTENTSTABLE
  5
D1
102
{ACAD_REACTORS
330
3
102
}
330
3
100
AcDbSortentsTable
330
2
  0
LAYOUT
  5
1C
102
{ACAD_REACTORS
330
18
102
}
330
18
100
AcDbPlotSettings
  1

  2
CDC PDF Writer
  4

  6

 40
0.0
 41
0.0
 42
0.0
 43
0.0
 44
0.0
 45
0.0
 46
0.0
 47
0.0
 48
0.0
 49
0.0
140
0.0
141
0.0
142
1.0
143
1.0
 70
   688
 72
     0
 73
     0
 74
     5
  7

 75
    16
147
1.0
 76
     0
 77
     2
 78
   300
148
0.0
149
0.0
100
AcDbLayout
  1
Layout1
 70
     1
 71
     1
 10
0.0
 20
0.0
 11
12.0
 21
9.0
 12
0.0
 22
0.0
 32
0.0
 14
1.000000000000000E+20
 24
1.000000000000000E+20
 34
1.000000000000000E+20
 15
-1.000000000000000E+20
 25
-1.000000000000000E+20
 35
-1.000000000000000E+20
146
0.0
 13
0.0
 23
0.0
 33
0.0
 16
1.0
 26
0.0
 36
0.0
 17
0.0
 27
1.0
 37
0.0
 76
     0
330
19
  0
LAYOUT
  5
17
102
{ACAD_REACTORS
330
18
102
}
330
18
100
AcDbPlotSettings
  1

  2
CDC PDF Writer
  4

  6

 40
0.0
 41
0.0
 42
0.0
 43
0.0
 44
0.0
 45
0.0
 46
0.0
 47
0.0
 48
0.0
 49
0.0
140
0.0
141
0.0
142
1.0
143
1.0
 70
  1712
 72
     0
 73
     0
 74
     0
  7

 75
     0
147
1.0
 76
     0
 77
     2
 78
   300
148
0.0
149
0.0
100
AcDbLayout
  1
Model
 70
     1
 71
     0
 10
0.0
 20
0.0
 11
12.0
 21
9.0
 12
0.0
 22
0.0
 32
0.0
 14
0.0
 24
0.0
 34
0.0
 15
0.0
 25
0.0
 35
0.0
146
0.0
 13
0.0
 23
0.0
 33
0.0
 16
1.0
 26
0.0
 36
0.0
 17
0.0
 27
1.0
 37
0.0
 76
     0
330
2
331
29
  0
MATERIAL
  5
3D
102
{ACAD_XDICTIONARY
360
3E
102
}
102
{ACAD_REACTORS
330
D
102
}
330
D
100
AcDbMaterial
  1
ByBlock
 72
     0
 43
0.0208333333333333
 43
0.0
 43
0.0
 43
0.0
 43
0.0
 43
0.0208333333333333
 43
0.0
 43
0.0
 43
0.0
 43
0.0
 43
1.0
 43
0.0
 43
0.0
 43
0.0
 43
0.0
 43
1.0
 77
     0
 47
0.0208333333333333
 47
0.0
 47
0.0
 47
0.0
 47
0.0
 47
0.0208333333333333
 47
0.0
 47
0.0
 47
0.0
 47
0.0
 47
1.0
 47
0.0
 47
0.0
 47
0.0
 47
0.0
 47
1.0
171
     0
 49
0.0208333333333333
 49
0.0
 49
0.0
 49
0.0
 49
0.0
 49
0.0208333333333333
 49
0.0
 49
0.0
 49
0.0
 49
0.0
 49
1.0
 49
0.0
 49
0.0
 49
0.0
 49
0.0
 49
1.0
175
     0
142
0.0208333333333333
142
0.0
142
0.0
142
0.0
142
0.0
142
0.0208333333333333
142
0.0
142
0.0
142
0.0
142
0.0
142
1.0
142
0.0
142
0.0
142
0.0
142
0.0
142
1.0
179
     0
144
0.0208333333333333
144
0.0
144
0.0
144
0.0
144
0.0
144
0.0208333333333333
144
0.0
144
0.0
144
0.0
144
0.0
144
1.0
144
0.0
144
0.0
144
0.0
144
0.0
144
1.0
147
0.0208333333333333
147
0.0
147
0.0
147
0.0
147
0.0
147
0.0208333333333333
147
0.0
147
0.0
147
0.0
147
0.0
147
1.0
147
0.0
147
0.0
147
0.0
147
0.0
147
1.0
  0
MATERIAL
  5
35
102
{ACAD_XDICTIONARY
360
36
102
}
102
{ACAD_REACTORS
330
D
102
}
330
D
100
AcDbMaterial
  1
ByLayer
 72
     0
 43
0.0208333333333333
 43
0.0
 43
0.0
 43
0.0
 43
0.0
 43
0.0208333333333333
 43
0.0
 43
0.0
 43
0.0
 43
0.0
 43
1.0
 43
0.0
 43
0.0
 43
0.0
 43
0.0
 43
1.0
 77
     0
 47
0.0208333333333333
 47
0.0
 47
0.0
 47
0.0
 47
0.0
 47
0.0208333333333333
 47
0.0
 47
0.0
 47
0.0
 47
0.0
 47
1.0
 47
0.0
 47
0.0
 47
0.0
 47
0.0
 47
1.0
171
     0
 49
0.0208333333333333
 49
0.0
 49
0.0
 49
0.0
 49
0.0
 49
0.0208333333333333
 49
0.0
 49
0.0
 49
0.0
 49
0.0
 49
1.0
 49
0.0
 49
0.0
 49
0.0
 49
0.0
 49
1.0
175
     0
142
0.0208333333333333
142
0.0
142
0.0
142
0.0
142
0.0
142
0.0208333333333333
142
0.0
142
0.0
142
0.0
142
0.0
142
1.0
142
0.0
142
0.0
142
0.0
142
0.0
142
1.0
179
     0
144
0.0208333333333333
144
0.0
144
0.0
144
0.0
144
0.0
144
0.0208333333333333
144
0.0
144
0.0
144
0.0
144
0.0
144
1.0
144
0.0
144
0.0
144
0.0
144
0.0
144
1.0
147
0.0208333333333333
147
0.0
147
0.0
147
0.0
147
0.0
147
0.0208333333333333
147
0.0
147
0.0
147
0.0
147
0.0
147
1.0
147
0.0
147
0.0
147
0.0
147
0.0
147
1.0
  0
MATERIAL
  5
C
102
{ACAD_XDICTIONARY
360
E
102
}
102
{ACAD_REACTORS
330
D
102
}
330
D
100
AcDbMaterial
  1
Global
 72
     0
 43
0.0208333333333333
 43
0.0
 43
0.0
 43
0.0
 43
0.0
 43
0.0208333333333333
 43
0.0
 43
0.0
 43
0.0
 43
0.0
 43
1.0
 43
0.0
 43
0.0
 43
0.0
 43
0.0
 43
1.0
 77
     0
 47
0.0208333333333333
 47
0.0
 47
0.0
 47
0.0
 47
0.0
 47
0.0208333333333333
 47
0.0
 47
0.0
 47
0.0
 47
0.0
 47
1.0
 47
0.0
 47
0.0
 47
0.0
 47
0.0
 47
1.0
171
     0
 49
0.0208333333333333
 49
0.0
 49
0.0
 49
0.0
 49
0.0
 49
0.0208333333333333
 49
0.0
 49
0.0
 49
0.0
 49
0.0
 49
1.0
 49
0.0
 49
0.0
 49
0.0
 49
0.0
 49
1.0
175
     0
142
0.0208333333333333
142
0.0
142
0.0
142
0.0
142
0.0
142
0.0208333333333333
142
0.0
142
0.0
142
0.0
142
0.0
142
1.0
142
0.0
142
0.0
142
0.0
142
0.0
142
1.0
179
     0
144
0.0208333333333333
144
0.0
144
0.0
144
0.0
144
0.0
144
0.0208333333333333
144
0.0
144
0.0
144
0.0
144
0.0
144
1.0
144
0.0
144
0.0
144
0.0
144
0.0
144
1.0
147
0.0208333333333333
147
0.0
147
0.0
147
0.0
147
0.0
147
0.0208333333333333
147
0.0
147
0.0
147
0.0
147
0.0
147
1.0
147
0.0
147
0.0
147
0.0
147
0.0
147
1.0
  0
MLINESTYLE
  5
53
102
{ACAD_REACTORS
330
33
102
}
330
33
100
AcDbMlineStyle
  2
STANDARD
 70
     0
  3

 62
   256
 51
90.0
 52
90.0
 71
     2
 49
0.5
 62
   256
  6
BYLAYER
 49
-0.5
 62
   256
  6
BYLAYER
  0
ACDBPLACEHOLDER
  5
9
102
{ACAD_REACTORS
330
A
102
}
330
A
  0
SCALE
  5
58
102
{ACAD_REACTORS
330
46
102
}
330
46
100
AcDbScale
 70
     0
300
1:20
140
1.0
141
20.0
290
     0
  0
SCALE
  5
59
102
{ACAD_REACTORS
330
46
102
}
330
46
100
AcDbScale
 70
     0
300
1" = 1'
140
1.0
141
1.0
290
     0
  0
SCALE
  5
5A
102
{ACAD_REACTORS
330
46
102
}
330
46
100
AcDbScale
 70
     0
300
1:1
140
1.0
141
1.0
290
     1
  0
SCALE
  5
5B
102
{ACAD_REACTORS
330
46
102
}
330
46
100
AcDbScale
 70
     0
300
1/128" = 1'-0"
140
0.0078125
141
12.0
290
     0
  0
SCALE
  5
5C
102
{ACAD_REACTORS
330
46
102
}
330
46
100
AcDbScale
 70
     0
300
1/64" = 1'-0"
140
0.015625
141
12.0
290
     0
  0
SCALE
  5
5D
102
{ACAD_REACTORS
330
46
102
}
330
46
100
AcDbScale
 70
     0
300
1/32" = 1'-0"
140
0.03125
141
12.0
290
     0
  0
SCALE
  5
5E
102
{ACAD_REACTORS
330
46
102
}
330
46
100
AcDbScale
 70
     0
300
1/16" = 1'-0"
140
0.0625
141
12.0
290
     0
  0
SCALE
  5
5F
102
{ACAD_REACTORS
330
46
102
}
330
46
100
AcDbScale
 70
     0
300
3/32" = 1'-0"
140
0.09375
141
12.0
290
     0
  0
SCALE
  5
60
102
{ACAD_REACTORS
330
46
102
}
330
46
100
AcDbScale
 70
     0
300
1/8" = 1'-0"
140
0.125
141
12.0
290
     0
  0
SCALE
  5
61
102
{ACAD_REACTORS
330
46
102
}
330
46
100
AcDbScale
 70
     0
300
3/16" = 1'-0"
140
0.1875
141
12.0
290
     0
  0
SCALE
  5
62
102
{ACAD_REACTORS
330
46
102
}
330
46
100
AcDbScale
 70
     0
300
1/4" = 1'-0"
140
0.25
141
12.0
290
     0
  0
SCALE
  5
63
102
{ACAD_REACTORS
330
46
102
}
330
46
100
AcDbScale
 70
     0
300
3/8" = 1'-0"
140
0.375
141
12.0
290
     0
  0
SCALE
  5
64
102
{ACAD_REACTORS
330
46
102
}
330
46
100
AcDbScale
 70
     0
300
1/2" = 1'-0"
140
0.5
141
12.0
290
     0
  0
SCALE
  5
65
102
{ACAD_REACTORS
330
46
102
}
330
46
100
AcDbScale
 70
     0
300
3/4" = 1'-0"
140
0.75
141
12.0
290
     0
  0
SCALE
  5
66
102
{ACAD_REACTORS
330
46
102
}
330
46
100
AcDbScale
 70
     0
300
1" = 1'-0"
140
1.0
141
12.0
290
     0
  0
SCALE
  5
67
102
{ACAD_REACTORS
330
46
102
}
330
46
100
AcDbScale
 70
     0
300
1-1/2" = 1'-0"
140
1.5
141
12.0
290
     0
  0
SCALE
  5
68
102
{ACAD_REACTORS
330
46
102
}
330
46
100
AcDbScale
 70
     0
300
3" = 1'-0"
140
3.0
141
12.0
290
     0
  0
SCALE
  5
69
102
{ACAD_REACTORS
330
46
102
}
330
46
100
AcDbScale
 70
     0
300
6" = 1'-0"
140
6.0
141
12.0
290
     0
  0
SCALE
  5
6A
102
{ACAD_REACTORS
330
46
102
}
330
46
100
AcDbScale
 70
     0
300
1'-0" = 1'-0"
140
12.0
141
12.0
290
     0
  0
TABLESTYLE
  5
54
102
{ACAD_XDICTIONARY
360
55
102
}
102
{ACAD_REACTORS
330
47
102
}
330
47
100
AcDbTableStyle
280
     0
  3
Standard
 70
     0
 71
     0
 40
0.06
 41
0.06
280
     0
281
     0
  7
Standard
140
0.18
170
     2
 62
     0
 63
     7
283
     0
 90
      512
 91
        0
  1

274
    -2
284
     1
 64
     0
275
    -2
285
     1
 65
     0
276
    -2
286
     1
 66
     0
277
    -2
287
     1
 67
     0
278
    -2
288
     1
 68
     0
279
    -2
289
     1
 69
     0
  7
Standard
140
0.25
170
     5
 62
     0
 63
     7
283
     0
 90
      512
 91
        0
  1

274
    -2
284
     1
 64
     0
275
    -2
285
     1
 65
     0
276
    -2
286
     1
 66
     0
277
    -2
287
     1
 67
     0
278
    -2
288
     1
 68
     0
279
    -2
289
     1
 69
     0
  7
Standard
140
0.18
170
     5
 62
     0
 63
     7
283
     0
 90
      512
 91
        0
  1

274
    -2
284
     1
 64
     0
275
    -2
285
     1
 65
     0
276
    -2
286
     1
 66
     0
277
    -2
287
     1
 67
     0
278
    -2
288
     1
 68
     0
279
    -2
289
     1
 69
     0
  0
VISUALSTYLE
  5
2A
102
{ACAD_REACTORS
330
2B
102
}
330
2B
100
AcDbVisualStyle
  2
2dWireframe
 70
     4
177
     3
291
     0
 70
    58
 90
        0
176
     1
 90
        2
176
     1
 90
        0
176
     1
 90
        0
176
     1
 40
0.6
176
     1
 40
30.0
176
     1
 62
     7
420
 16777215
176
     1
 90
        1
176
     1
 90
        4
176
     1
 62
     7
176
     1
 62
   257
176
     1
 90
        1
176
     1
 90
        1
176
     1
 40
1.0
176
     1
 90
        0
176
     1
 62
   257
176
     1
 40
1.0
176
     1
 90
        1
176
     1
 90
        6
176
     1
 90
        2
176
     1
 62
     7
176
     1
 90
        5
176
     1
 90
        0
176
     1
 90
        0
176
     1
290
     0
176
     1
 90
        1
176
     1
 40
0.0
176
     1
 90
        0
176
     1
290
     1
176
     1
290
     1
176
     1
290
     0
176
     1
290
     0
176
     1
290
     0
176
     1
290
     0
176
     1
290
     0
176
     1
290
     0
176
     1
290
     0
176
     1
 90
       50
176
     1
 40
0.0
176
     1
 40
1.0
176
     1
 90
        0
176
     1
 62
    18
176
     1
 90
       50
176
     1
 90
        3
176
     1
 62
     5
420
      255
176
     1
290
     0
176
     1
 90
       50
176
     1
 90
       50
176
     1
 90
       50
176
     1
290
     0
176
     1
 90
       50
176
     1
 62
   256
176
     0
 40
1.0
176
     0
 90
        2
176
     1
  1
strokes_ogs.tif
176
     1
290
     0
176
     1
 40
1.0
176
     1
 40
1.0
176
     1
  0
VISUALSTYLE
  5
56
102
{ACAD_REACTORS
330
2B
102
}
330
2B
100
AcDbVisualStyle
  2
Realistic
 70
     8
177
     3
291
     0
 70
    58
 90
        2
176
     1
 90
        3
176
     1
 90
        0
176
     1
 90
        2
176
     1
 40
0.6
176
     1
 40
30.0
176
     1
 62
     7
420
 16777215
176
     1
 90
        0
176
     1
 90
        0
176
     1
 62
     7
176
     1
 62
   257
176
     1
 90
        1
176
     1
 90
        1
176
     1
 40
1.0
176
     1
 90
        8
176
     1
 62
   257
176
     1
 40
1.0
176
     1
 90
        1
176
     1
 90
        6
176
     1
 90
        2
176
     1
 62
     7
176
     1
 90
        3
176
     1
 90
        0
176
     1
 90
        0
176
     1
290
     0
176
     1
 90
       13
176
     1
 40
0.0
176
     1
 90
        0
176
     1
290
     0
176
     1
290
     1
176
     1
290
     1
176
     1
290
     0
176
     1
290
     0
176
     1
290
     0
176
     1
290
     0
176
     1
290
     0
176
     1
290
     0
176
     1
 90
       50
176
     1
 40
0.0
176
     1
 40
1.0
176
     1
 90
        0
176
     1
 62
    18
176
     1
 90
       50
176
     1
 90
        3
176
     1
 62
     5
420
      255
176
     1
290
     0
176
     1
 90
       50
176
     1
 90
       50
176
     1
 90
       50
176
     1
290
     0
176
     1
 90
       50
176
     1
 62
   256
176
     0
 40
1.0
176
     0
 90
        2
176
     1
  1
strokes_ogs.tif
176
     1
290
     0
176
     1
 40
1.0
176
     1
 40
1.0
176
     1
  0
VISUALSTYLE
  5
57
102
{ACAD_REACTORS
330
2B
102
}
330
2B
100
AcDbVisualStyle
  2
Wireframe
 70
     5
177
     3
291
     0
 70
    58
 90
        0
176
     1
 90
        2
176
     1
 90
        0
176
     1
 90
        0
176
     1
 40
0.6
176
     1
 40
30.0
176
     1
 62
     7
420
 16777215
176
     1
 90
        1
176
     1
 90
        4
176
     1
 62
     7
176
     1
 62
   257
176
     1
 90
        1
176
     1
 90
        1
176
     1
 40
1.0
176
     1
 90
        0
176
     1
 62
   257
176
     1
 40
1.0
176
     1
 90
        1
176
     1
 90
        6
176
     1
 90
        2
176
     1
 62
     7
176
     1
 90
        3
176
     1
 90
        0
176
     1
 90
        0
176
     1
290
     0
176
     1
 90
        1
176
     1
 40
0.0
176
     1
 90
        0
176
     1
290
     0
176
     1
290
     1
176
     1
290
     1
176
     1
290
     0
176
     1
290
     0
176
     1
290
     0
176
     1
290
     0
176
     1
290
     0
176
     1
290
     0
176
     1
 90
       50
176
     1
 40
0.0
176
     1
 40
1.0
176
     1
 90
        0
176
     1
 62
    18
176
     1
 90
       50
176
     1
 90
        3
176
     1
 62
     5
420
      255
176
     1
290
     0
176
     1
 90
       50
176
     1
 90
       50
176
     1
 90
       50
176
     1
290
     0
176
     1
 90
       50
176
     1
 62
   256
176
     0
 40
1.0
176
     0
 90
        2
176
     1
  1
strokes_ogs.tif
176
     1
290
     0
176
     1
 40
1.0
176
     1
 40
1.0
176
     1
  0
DICTIONARYVAR
  5
4A
102
{ACAD_REACTORS
330
49
102
}
330
49
100
DictionaryVariables
280
     0
  1
1:1
  0
DICTIONARYVAR
  5
4B
102
{ACAD_REACTORS
330
49
102
}
330
49
100
DictionaryVariables
280
     0
  1
STANDARD
  0
DICTIONARYVAR
  5
4C
102
{ACAD_REACTORS
330
49
102
}
330
49
100
DictionaryVariables
280
     0
  1
STANDARD
  0
DICTIONARYVAR
  5
4D
102
{ACAD_REACTORS
330
49
102
}
330
49
100
DictionaryVariables
280
     0
  1

  0
DICTIONARYVAR
  5
4E
102
{ACAD_REACTORS
330
49
102
}
330
49
100
DictionaryVariables
280
     0
  1

  0
DICTIONARYVAR
  5
4F
102
{ACAD_REACTORS
330
49
102
}
330
49
100
DictionaryVariables
280
     0
  1
1
  0
DICTIONARYVAR
  5
50
102
{ACAD_REACTORS
330
49
102
}
330
49
100
DictionaryVariables
280
     0
  1
15
  0
DICTIONARYVAR
  5
51
102
{ACAD_REACTORS
330
49
102
}
330
49
100
DictionaryVariables
280
     0
  1
0
  0
DICTIONARYVAR
  5
52
102
{ACAD_REACTORS
330
49
102
}
330
49
100
DictionaryVariables
280
     0
  1
0
  0
DICTIONARY
  5
3E
330
3D
100
AcDbDictionary
280
     1
281
     1
  3
BUMPTILE
360
3F
  3
DIFFUSETILE
360
40
  3
OPACITYTILE
360
41
  3
REFLECTIONTILE
360
42
  3
REFRACTIONTILE
360
43
  3
SPECULARTILE
360
44
  0
DICTIONARY
  5
36
330
35
100
AcDbDictionary
280
     1
281
     1
  3
BUMPTILE
360
37
  3
DIFFUSETILE
360
38
  3
OPACITYTILE
360
39
  3
REFLECTIONTILE
360
3A
  3
REFRACTIONTILE
360
3B
  3
SPECULARTILE
360
3C
  0
DICTIONARY
  5
E
330
C
100
AcDbDictionary
280
     1
281
     1
  3
BUMPTILE
360
F
  3
DIFFUSETILE
360
10
  3
OPACITYTILE
360
11
  3
REFLECTIONTILE
360
12
  3
REFRACTIONTILE
360
13
  3
SPECULARTILE
360
14
  0
DICTIONARY
  5
55
330
54
100
AcDbDictionary
280
     1
281
     1
  3
ACAD_ROUNDTRIP_2008_TABLESTYLE_CELLSTYLEMAP
360
D3
  0
XRECORD
  5
3F
102
{ACAD_REACTORS
330
3E
102
}
330
3E
100
AcDbXrecord
280
     1
270
     1
271
     1
  0
XRECORD
  5
40
102
{ACAD_REACTORS
330
3E
102
}
330
3E
100
AcDbXrecord
280
     1
270
     1
271
     1
  0
XRECORD
  5
41
102
{ACAD_REACTORS
330
3E
102
}
330
3E
100
AcDbXrecord
280
     1
270
     1
271
     1
  0
XRECORD
  5
42
102
{ACAD_REACTORS
330
3E
102
}
330
3E
100
AcDbXrecord
280
     1
270
     1
271
     1
  0
XRECORD
  5
43
102
{ACAD_REACTORS
330
3E
102
}
330
3E
100
AcDbXrecord
280
     1
270
     1
271
     1
  0
XRECORD
  5
44
102
{ACAD_REACTORS
330
3E
102
}
330
3E
100
AcDbXrecord
280
     1
270
     1
271
     1
  0
XRECORD
  5
37
102
{ACAD_REACTORS
330
36
102
}
330
36
100
AcDbXrecord
280
     1
270
     1
271
     1
  0
XRECORD
  5
38
102
{ACAD_REACTORS
330
36
102
}
330
36
100
AcDbXrecord
280
     1
270
     1
271
     1
  0
XRECORD
  5
39
102
{ACAD_REACTORS
330
36
102
}
330
36
100
AcDbXrecord
280
     1
270
     1
271
     1
  0
XRECORD
  5
3A
102
{ACAD_REACTORS
330
36
102
}
330
36
100
AcDbXrecord
280
     1
270
     1
271
     1
  0
XRECORD
  5
3B
102
{ACAD_REACTORS
330
36
102
}
330
36
100
AcDbXrecord
280
     1
270
     1
271
     1
  0
XRECORD
  5
3C
102
{ACAD_REACTORS
330
36
102
}
330
36
100
AcDbXrecord
280
     1
270
     1
271
     1
  0
XRECORD
  5
F
102
{ACAD_REACTORS
330
E
102
}
330
E
100
AcDbXrecord
280
     1
270
     1
271
     1
  0
XRECORD
  5
10
102
{ACAD_REACTORS
330
E
102
}
330
E
100
AcDbXrecord
280
     1
270
     1
271
     1
  0
XRECORD
  5
11
102
{ACAD_REACTORS
330
E
102
}
330
E
100
AcDbXrecord
280
     1
270
     1
271
     1
  0
XRECORD
  5
12
102
{ACAD_REACTORS
330
E
102
}
330
E
100
AcDbXrecord
280
     1
270
     1
271
     1
  0
XRECORD
  5
13
102
{ACAD_REACTORS
330
E
102
}
330
E
100
AcDbXrecord
280
     1
270
     1
271
     1
  0
XRECORD
  5
14
102
{ACAD_REACTORS
330
E
102
}
330
E
100
AcDbXrecord
280
     1
270
     1
271
     1
  0
CELLSTYLEMAP
  5
D3
102
{ACAD_REACTORS
330
55
102
}
330
55
100
AcDbCellStyleMap
 90
        3
300
CELLSTYLE
  1
TABLEFORMAT_BEGIN
 90
        5
170
     1
 91
        0
 92
    32768
 62
   257
 93
        1
300
CONTENTFORMAT
  1
CONTENTFORMAT_BEGIN
 90
        0
 91
        0
 92
      512
 93
        0
300

 40
0.0
140
1.0
 94
        5
 62
     0
340
21
144
0.25
309
CONTENTFORMAT_END
171
     1
301
MARGIN
  1
CELLMARGIN_BEGIN
 40
0.06
 40
0.06
 40
0.06
 40
0.06
 40
0.18
 40
0.18
309
CELLMARGIN_END
 94
        6
 95
        1
302
GRIDFORMAT
  1
GRIDFORMAT_BEGIN
 90
        0
 91
        1
 62
     0
 92
       -2
340
0
 93
        0
 40
0.045
309
GRIDFORMAT_END
 95
        2
302
GRIDFORMAT
  1
GRIDFORMAT_BEGIN
 90
        0
 91
        1
 62
     0
 92
       -2
340
0
 93
        0
 40
0.045
309
GRIDFORMAT_END
 95
        4
302
GRIDFORMAT
  1
GRIDFORMAT_BEGIN
 90
        0
 91
        1
 62
     0
 92
       -2
340
0
 93
        0
 40
0.045
309
GRIDFORMAT_END
 95
        8
302
GRIDFORMAT
  1
GRIDFORMAT_BEGIN
 90
        0
 91
        1
 62
     0
 92
       -2
340
0
 93
        0
 40
0.045
309
GRIDFORMAT_END
 95
       16
302
GRIDFORMAT
  1
GRIDFORMAT_BEGIN
 90
        0
 91
        1
 62
     0
 92
       -2
340
0
 93
        0
 40
0.045
309
GRIDFORMAT_END
 95
       32
302
GRIDFORMAT
  1
GRIDFORMAT_BEGIN
 90
        0
 91
        1
 62
     0
 92
       -2
340
0
 93
        0
 40
0.045
309
GRIDFORMAT_END
309
TABLEFORMAT_END
  1
CELLSTYLE_BEGIN
 90
        1
 91
        1
300
_TITLE
309
CELLSTYLE_END
300
CELLSTYLE
  1
TABLEFORMAT_BEGIN
 90
        5
170
     1
 91
        0
 92
        0
 62
   257
 93
        1
300
CONTENTFORMAT
  1
CONTENTFORMAT_BEGIN
 90
        0
 91
        0
 92
      512
 93
        0
300

 40
0.0
140
1.0
 94
        5
 62
     0
340
21
144
0.18
309
CONTENTFORMAT_END
171
     1
301
MARGIN
  1
CELLMARGIN_BEGIN
 40
0.06
 40
0.06
 40
0.06
 40
0.06
 40
0.18
 40
0.18
309
CELLMARGIN_END
 94
        6
 95
        1
302
GRIDFORMAT
  1
GRIDFORMAT_BEGIN
 90
        0
 91
        1
 62
     0
 92
       -2
340
0
 93
        0
 40
0.045
309
GRIDFORMAT_END
 95
        2
302
GRIDFORMAT
  1
GRIDFORMAT_BEGIN
 90
        0
 91
        1
 62
     0
 92
       -2
340
0
 93
        0
 40
0.045
309
GRIDFORMAT_END
 95
        4
302
GRIDFORMAT
  1
GRIDFORMAT_BEGIN
 90
        0
 91
        1
 62
     0
 92
       -2
340
0
 93
        0
 40
0.045
309
GRIDFORMAT_END
 95
        8
302
GRIDFORMAT
  1
GRIDFORMAT_BEGIN
 90
        0
 91
        1
 62
     0
 92
       -2
340
0
 93
        0
 40
0.045
309
GRIDFORMAT_END
 95
       16
302
GRIDFORMAT
  1
GRIDFORMAT_BEGIN
 90
        0
 91
        1
 62
     0
 92
       -2
340
0
 93
        0
 40
0.045
309
GRIDFORMAT_END
 95
       32
302
GRIDFORMAT
  1
GRIDFORMAT_BEGIN
 90
        0
 91
        1
 62
     0
 92
       -2
340
0
 93
        0
 40
0.045
309
GRIDFORMAT_END
309
TABLEFORMAT_END
  1
CELLSTYLE_BEGIN
 90
        2
 91
        1
300
_HEADER
309
CELLSTYLE_END
300
CELLSTYLE
  1
TABLEFORMAT_BEGIN
 90
        5
170
     1
 91
        0
 92
        0
 62
   257
 93
        1
300
CONTENTFORMAT
  1
CONTENTFORMAT_BEGIN
 90
        0
 91
        0
 92
      512
 93
        0
300

 40
0.0
140
1.0
 94
        2
 62
     0
340
21
144
0.18
309
CONTENTFORMAT_END
171
     1
301
MARGIN
  1
CELLMARGIN_BEGIN
 40
0.06
 40
0.06
 40
0.06
 40
0.06
 40
0.18
 40
0.18
309
CELLMARGIN_END
 94
        6
 95
        1
302
GRIDFORMAT
  1
GRIDFORMAT_BEGIN
 90
        0
 91
        1
 62
     0
 92
       -2
340
0
 93
        0
 40
0.045
309
GRIDFORMAT_END
 95
        2
302
GRIDFORMAT
  1
GRIDFORMAT_BEGIN
 90
        0
 91
        1
 62
     0
 92
       -2
340
0
 93
        0
 40
0.045
309
GRIDFORMAT_END
 95
        4
302
GRIDFORMAT
  1
GRIDFORMAT_BEGIN
 90
        0
 91
        1
 62
     0
 92
       -2
340
0
 93
        0
 40
0.045
309
GRIDFORMAT_END
 95
        8
302
GRIDFORMAT
  1
GRIDFORMAT_BEGIN
 90
        0
 91
        1
 62
     0
 92
       -2
340
0
 93
        0
 40
0.045
309
GRIDFORMAT_END
 95
       16
302
GRIDFORMAT
  1
GRIDFORMAT_BEGIN
 90
        0
 91
        1
 62
     0
 92
       -2
340
0
 93
        0
 40
0.045
309
GRIDFORMAT_END
 95
       32
302
GRIDFORMAT
  1
GRIDFORMAT_BEGIN
 90
        0
 91
        1
 62
     0
 92
       -2
340
0
 93
        0
 40
0.045
309
GRIDFORMAT_END
309
TABLEFORMAT_END
  1
CELLSTYLE_BEGIN
 90
        3
 91
        2
300
_DATA
309
CELLSTYLE_END
  0
ENDSEC
  0
SECTION
  2
ACDSDATA
 70
     2
 71
     8
  0
ACDSSCHEMA
 90
        0
  1
AcDb_Thumbnail_Schema
  2
AcDbDs::ID
280
    10
 91
        8
  2
Thumbnail_Data
280
    15
 91
        0
101
ACDSRECORD
 95
        0
 90
        1
  2
AcDbDs::TreatedAsObjectData
280
     1
291
     1
101
ACDSRECORD
 95
        0
 90
        2
  2
AcDbDs::Legacy
280
     1
291
     1
101
ACDSRECORD
  1
AcDbDs::ID
 90
        3
  2
AcDs:Indexable
280
     1
291
     1
101
ACDSRECORD
  1
AcDbDs::ID
 90
        4
  2
AcDbDs::HandleAttribute
280
     7
282
     1
  0
ACDSSCHEMA
 90
        1
  1
AcDbDs::TreatedAsObjectDataSchema
  2
AcDbDs::TreatedAsObjectData
280
     1
 91
        0
  0
ACDSSCHEMA
 90
        2
  1
AcDbDs::LegacySchema
  2
AcDbDs::Legacy
280
     1
 91
        0
  0
ACDSSCHEMA
 90
        3
  1
AcDbDs::IndexedPropertySchema
  2
AcDs:Indexable
280
     1
 91
        0
  0
ACDSSCHEMA
 90
        4
  1
AcDbDs::HandleAttributeSchema
  2
AcDbDs::HandleAttribute
280
     7
 91
        1
284
     1
  0
ACDSRECORD
 90
        0
  2
AcDbDs::ID
280
    10
320
17
  2
Thumbnail_Data
280
    15
 94
    10041
310
89504E470D0A1A0A0000000D4948445200000100000000800803000000D36B473800000300504C5445212830FFFFFF2128300000000000000000000000000000000000000000000000000000330000660000990000CC0000FF0033000033330033660033990033CC0033FF0066000066330066660066990066CC0066FF0099
310
000099330099660099990099CC0099FF00CC0000CC3300CC6600CC9900CCCC00CCFF00FF0000FF3300FF6600FF9900FFCC00FFFF3300003300333300663300993300CC3300FF3333003333333333663333993333CC3333FF3366003366333366663366993366CC3366FF3399003399333399663399993399CC3399FF33CC00
310
33CC3333CC6633CC9933CCCC33CCFF33FF0033FF3333FF6633FF9933FFCC33FFFF6600006600336600666600996600CC6600FF6633006633336633666633996633CC6633FF6666006666336666666666996666CC6666FF6699006699336699666699996699CC6699FF66CC0066CC3366CC6666CC9966CCCC66CCFF66FF0066
310
FF3366FF6666FF9966FFCC66FFFF9900009900339900669900999900CC9900FF9933009933339933669933999933CC9933FF9966009966339966669966999966CC9966FF9999009999339999669999999999CC9999FF99CC0099CC3399CC6699CC9999CCCC99CCFF99FF0099FF3399FF6699FF9999FFCC99FFFFCC0000CC00
310
33CC0066CC0099CC00CCCC00FFCC3300CC3333CC3366CC3399CC33CCCC33FFCC6600CC6633CC6666CC6699CC66CCCC66FFCC9900CC9933CC9966CC9999CC99CCCC99FFCCCC00CCCC33CCCC66CCCC99CCCCCCCCCCFFCCFF00CCFF33CCFF66CCFF99CCFFCCCCFFFFFF0000FF0033FF0066FF0099FF00CCFF00FFFF3300FF3333
310
FF3366FF3399FF33CCFF33FFFF6600FF6633FF6666FF6699FF66CCFF66FFFF9900FF9933FF9966FF9999FF99CCFF99FFFFCC00FFCC33FFCC66FFCC99FFCCCCFFCCFFFFFF00FFFF33FFFF66FFFF99FFFFCCFFFFFF0000000D0D0D1A1A1A2828283535354343435050505D5D5D6B6B6B787878868686939393A1A1A1AEAEAEBB
310
BBBBC9C9C9D6D6D6E4E4E4F1F1F1FFFFFF0000000000000000000000000000000000000000000000000000000000002E4550F10000181B4944415478DABD5D4B72DBCA0EC586B2822CCA9B5095DE5EEE0632D2C4B314C72C0DBC010C588549CF1F1B7F34298976682B8EE2E867E234BE07E836C0EBDBFDC1F7F536C1B7DE2E
310
97CB93677F7FE78F264282F50F11E07A47FD0ED707FA17F0C3EB174CFD35280F507A6FF92FE89BFC765B6FF6427F0102EACBF851B20FA5CBA53FD9BF93FB1F41E07E27449152BE1100546C1551AF559E37B1C9FF9324970FB2C76EC4006490FA4F71002070B60F45FED1881568F8FD5D08AC2AAF6299FC0A805F532C35E6A5
310
87A205810910859AD08DE28314B955CD1800C557404BEAA01721AB02DF0E4107C0AE1DFD07B35110542D40A45D032A6690BFF3BFBCEA8221E30DB1BE05AEFEEA4B56C7C111FCFE06FD4F2274005C09202F9D2D098C060FB4F10890C4320FD2DFBCEABDDE887D497969BA880BA61FF9BDBEF07EBFDFB3DDA20360EA272ABDFE
310
D35431C82F38541FC6C5779CCC5BB0208C81BD0C931565FC40F530F4E71B11B8DFC32D9989A7BBB2C2E299926EC79AA5C54BEF5000387260BC871F000320ECCB5D41F77FE49E742F1EF2ED2CEBD78B0AE76F7EA008D397CFBDB53D7CABEE7E6B106A4160D61FC23228185052D22D43FF81F801436BE701206100C305A2AD88
310
39414C00C8233790003FF8B2AACDFC00A667C3AEDC1C867788BF247A010040FB670492FC8069E933002CB4182F0D294ECE70AA0DC892BB27C0BCD2012B16B759AC0A2C2F7925C23F19C33DE7BC58E557004C8511275FBBE2EC689BF9013B7B7233D6A5AE0B2D66372C7D4E28F442E8801CBF8F7BFC87E93F98F747CF40A0EA
310
EA0449E69423C2D65373A003FD80C1059A9643D2AC1485223D466CC774E05872A0E1EEDECDE66EB772CD9EFE66F0CDFFAF57394DE101520257E45771504CC0011013286503B94A20BA3300D841E0D8EDF7515D7FE837280390527B0AB9265DA69C0947A4C674B382C90140CFF62107824000F5871058E6043B99F06B2578A0
310
0BF703D5A024815A8579048090AE2BC1445422568208CDF9F9BFA94CC231E1A7C1A10A0461085E98C07104C41FFEFE1A00E000684A0463CE274B3B4D535257030073C21A7E1F0A0014493F10EC99B7679AEE693EA1024FADE18806A0B9017688595B47F73625DBD794A63203AEF434980095B765B7A0B12F5B895DD55392E4
310
20024F01B81A2162D68F554139E3A3ACA9C9A26559B15441903420C14115849C455A44412B377282CD44D1E5FB54E07A1504DC0502A678E48C462438EBDDEA0B928F24C021A133914D034C05C2A868CFB8C5986A98B5975DFC76B20A5C45055219284C05A47CE7564D2109A7EB8A10A4965E3A9A27819448434042906B03CA
310
C6832505FF1C6FF86900AE6603180530C2A08543A92BCE9082ED4800E4E24925D20FC5709A090ACA6C9B25C198EBCC5D0C4E43E06A77E101C5D351CA7BFB7DE304C2AEA92390C9CCEAE45405A8EA117A6A5D02E8C0A45AE61D5EE22B081C0540ACDFBCA0D17DC1C685C542EB7F881AB8464FA6B3AD91C7F9142191B290E15B
310
370CC250496DD66017814FABC0FDA1F8EA0382017062160A5FB7DE3A02CDB4448CA0EB46278B5ACA096FB28C94191DF52DA2F73DC59D763CA0E54081C0C334E072060030005017A3D05F22B922C0D6B0226057DB01905744912C491C151EC818053176CEA8F89B42243B9F064F1138030043E00A2911C80468C4AD5562167F
310
591888D65D02B6C9037DAF5B1A3FD30401D0B7C38080023089C35DFD484FAE570826F2CC39D105CA9EFE3800AA7ED8423359F11900FEDB31E800347AB7C0D9016025E9FAC1A0E498EF6EC05C3F5AD743AB27D608AF115419BC443AC109BC0240E536CE9AC1585719B305B42E7EFFA72BC2BAE88D73C4777AC79B70430241F7
310
0A8D79CDCAA001659641E406ABA14814A2D65ACFF880CBC900C046FF5968CF5FBA12AC92D302A2030B2E5DFEF79E2336F9873856A8A36CC9061C872009A4E4C2A407FCE0947A09408FC3E039005C6B2DB0458001C06C151D81D6D560590158D6EBBD89A2DC5A7B7F7FF737B3A35C55C0DCA2F902B42461D2D62745A410659B
310
3651F17127F97308DC9F4741A8162022B342DB63ABCD2F09001400BA13E89682DDF43B08EF6AE3FDBD481A31BC6430690300CFA8491DC1B4E9357E0D810300946FA20C4B10B4AA13C851401C0103D0351D68959A2140FCD56F1752EAC91C097B06487986704BE89503512422142308AF74E04551F0FB0500D7B11CDE2601EB
310
D2A632A5E1BAF0EB635D0FD809760D58BA00BFECD665C58B788306D6DFE9003471FB6A0F53EA94BA8B01322E3D1372F462A0E23002F7977CC09E0F706D68028A00C02AB060927B597A68E8C010DE503C225932443D876623A19600C8F3001E1BD7C79A5CCDB465633E69064F01C8D4E875E0341D02F6015D8A261CA508BE98
310
DC0BFF97B191D0A8B71E12DBA5A55CAA03009A28F5FBA9701F5A6B78EAE365171CE0C30E23F00A80444B3902028091E4BF92E0E204D8CB779954F6C57C24BA07E59734990980942D499E95E629ACD868A2761874C2D711380A40E784AED9D515005CEE552E8E02B2EC1C061980F5B396E616C05AD2A3E43BAF3BAD95110704
310
F56B8D6B4A4EFF198BD45E575C88A217714409BE08407682504AC0E405586EF301EB1F5E4FC140C2207BF72EBFBD6761050006E0C28B29745A57085501FE671215A046230FC832374B920F30C2670290CC5FD5173D264084860CC0A4990B3B8745FC232C5C1E5EA003C01E81344F68D146968F63C7C806B3470F004E9FE6C4
310
8F34821F0190933ED44CD01F600F8E9AE837CE047B4A00D3942D60550029979AE6F81A4190EBC79B050229A451167B2D2B299C2F344F0E6320ED798BFCE813F7FD3CB00E48508E0396093621CC8CA4E917D93A03B002B00A36A57449D3C4F5ADEFDAE901B22C7395BF2BC3D46FA270CD7C0D89EF2B3366AA022F17F6380015
310
81EB6E5346856F610928F50DF2379889EE26AFE3BFCB6A0A5DB0261AD001B848026D00AC124E376EADB5543773E98C5A6B1567602A702A00F727008C3ED04605D08343AB5380DD6C4512CF829665924269AD912FB9DF4BD25814C905D1EE1AD43120A59900D44134EBA8B47FF182CF54E0BAD71B442AB480B942AD0A5B2EF6
310
8C0615190C000B1209002F7727AD10F8FD1C1CD0AA46A839A8F14CCC34B51F02200FC7A10C40A179EAD5AD27DDE0CC663507CB6CA1350F8252307334284CB70320F412236041A6A56C5B2C21A86384330178610258F22089DF7D75586F936FE05563E6332D9BE6B93431080DDE3300D59D45F9D302F3D02E61CBD09BA5D369
310
00DC9F3AC13C21C8D7C046CA6E4C5638D8C0AE01ECD1C11B26604CD0243AFE7EE167D26054F2E70140438D871A719B11098994380B815195F601302D0049C965B9787517CDF59518869BE436D22DEE09AEC42E71741D00D29AC693ACA10364DD235E73083D927799221E5081438DE3D65E00706D31228669F859E45F3CD55B
310
B4F46356586A1EABE0482B5DB0A2CFB8206D1F6E6DC086C2294518291074468E8711A63314E0FE4A0114001F95EE1A23CD005227AF00E837FD6FCF90980665F698A322B5891110972035A101901088B82B9E0425A168F64EEDAB1E9B93BB7CD6FFEF03907C00AACE5074B139EF5F1402C183BFD12BEC5D92D6D82F36C90CB5
310
5FC6A14233DB0A805499B70400B833A52841683A330F7892052400449FB522936AD72300CBDF34EF97DCB767BF1C14356EAC4AD0FCA69402EBB514F9515D3328B710B5DDEFEE038B817C0302D78D02A46169145F64ABD1BCCC513F10B5FF7AD7C91FAE0C5673B869C884C9B81FF18DFD5B973B8D46500C22A03250C2A3601E
310
963D70FBF410D175AB0050760A79A2DE8D5CFD7F0060595F63F96F4D475BF8855C2C4E1D8C76CB6C0ABBC4367162473E23E2637168096858809692D3F9086CC56793483C40C82FD5CAA216204EC001E88EE166B5C1AAEDE21924CF67EBBEFD724BE2BA616A625D42A3409E4B66C583965C802AC0746CA3DEE513E25F777D42
310
96DF45E7AF0851024084436236A869831CF96159EF5503D8238829890F6853AF6DDC43B6B449037D3E3E0320F6710C81CBBF2CBF6B8066022238981183E5A9EB722BEBB788FBEB5AA0E99EF03AEC2BC464D6DA0F5A06A01B86482964A07041B9F26C1249AD85EA4D8243105CBEE8FD3300A6009A3836C340E722CCCD2F5483
310
A032042B169D2572827C91B15ACFA926AB7C256F16328C018A217D79855508D1173802C1B151C2EBE3277231E0259E2B2CBBB75B239914F21640EF882847C454302E5118CA97927DABA45C5CB0EE4B1DC989424B0568D302119D16C64F4170440B1E0330EE1675D72C97BF70EF8AF1008D918B0C0CA80B006E9921360B91A4
310
F488B11D5C3EA176CAC8638C1A3EDAEC4DE79E280FA65A11F1CD085CA13240148C886020DD00106D685EBF2E36CC201513B7445001B0B8A918DC845A54A352965898F7A6A1472A64B7001BB35604A66F45C01C80098DE3B484A6038B70A24AE1F52989FF228F659BE070A0FF5DA64C98824518FA75B37C30EF53D19F858917
310
2AB4E0744642F0200C0005022AFCAD76C67D316D495703FE0FB16B7587004CA07511354C7211392DDC415E9168DE54941A00330D29CC9B5C86F70C37FB26A73372A2070034C2B26F96B8C91BCC048F882D1A01FB170671E4ADF1E68D0EE650F9C5536A2A0A8C4A28E54DCA9A7C4928424C3342F46904BE08404A8375658CF4
310
421BA35EB8E7A57A60434437FACF4A3E0540A22846F7BC27CCC297CAA72CFDE5699F22155210C9BAEA7B7332671487D7970060F501661C0B2CAEFF0B862DB4FCE25073D49A8A19704E9149552008C1BC5B936CCB24D2D02CFC2900D0FEE2CEB8081A23E6CDB27BB038B6DC5C1BD94C8C4D8071C120A5C362852E25B71B6C2C
310
F8CC363EDC38F8ED2A5067851003163216608811B2DC3DA9EB96CD64A9364074DB0C498494E13A9EA8002FF642039AEEAE573780763F3687A673BDC0DBDBDBD81C2D9352E11B290048A1CD8B24EB968BE790B4DE46A8354F58B8BDC051C1F786347385A8A76AECEC5F1C0098CE04E08DBFBC3D4E3B2EA00040D971C5CBBA72
310
5B88805EFC4BF34818B1A6C30F42752C0A80CA6DAD81D29A1F6C70BCFED708BC8885BB0094D6586A781400C81440A46F8BBF7441A588D654C0C6E2BA06E834BDED15F6897B214B3DF5942E2CEC23009F46E07936502CA00090F60D51DA46EF0044CB789E4D6E65B41774E2982B656DA13752A654C60B30B266F2FC47E304F9
310
5469C0C257B033DF361D81E0D261D8DB283B00A008E03824998C118B79F4FBF96F8740E6A11607C07B074DCDC12664C42064684C9841E77EB84F889A17551D302BDB11EF2849B2BB51B8048111816160BE6840E409F3DFBF34DBE830AA2A6809A09E52F06878931A32D203EB97C90C956A40206CF12896626FC4F19F0EB4DA
310
00C077B4497D4600A2814CF3477B9F352526AB13140289064A1C0709CE95AECD8D12DC2CF3B029144A07B49440837B36F02F080C5980A940B0F179588A4217F31953F3DFF7368B57544667598C0E594A3688D6EFE2D961A6C2D6BA98CC325A4A83629354CDC94F01E0FA14807E97D71DAD5993DC0066C6687E7F9F9DF871F7
310
10C9BFCD8B2D760E8666014C2770AE64BED146C722F6C0C847EC4FF94E5F5FF6B68BC0707E50CE00694C4F67FCFB31AB038F568F8CCE46B5D0A141D09DF30D3A28BCC94272A56693433A266136B03E7C2DE37AABEDDDEF6722D0F60080B741D9A98D00A4D46C9EE75FF3AF81D258A5A35B0F002D0FFA692E4BDC4EEA0030B7
310
26F4AFBF9DB29F25A869188378877FBD5D1F4E0ABCE54951D7446727319383A1E5F32CE10F9CD6D402FA663343B4A413653430760082162985A01FE1A23BA5921BDEEDEE7EF6089DEBD3540036BEB7142ABFF2359BDB57EE8FD2F95318965DCFD4E1501833C7DC519574319DDBC241C2A9E0D43482072AF029040E01106BDE
310
EC3F695CB804C7C8FE161A99544E92ADEACBC3D6BACD842BE398361B54C0A83025052D11FA574F787D910A80535F2504D751C1FCAF14B7889B196B610593DC4AFE482125EDC3F01398CF2EC3D497585DA10FC93C06603A030041A09E2147D9F563AE90C243E994C88080277CECF05994D55F18029C2AF49602E4AA13CB095E
310
04252F533E60DF0D7E55057601A82EA0C6FE3A474E57FE5AF6765390D6F8BC907FFED09F0633CDB34D99A0CC58578DCACA87E95C5385E8B1FC2701A099E0E656F9BAB2D0DAFA59520EA034291B466F7FFFD1F1883FF307AD18389D88BACD0607CB0A131887167F1A80CAD5B50D49247980ADB7F78DDC794683503683CD9C35
310
D9660A122388CE380E89DFE65CCBD506EE8FF2809300E8082CF173934FF6492DE216812501BFC808010AFF3668C9B2FC596F6B449C690500A4A16EC94F1BCACB0A7A3ED2A85FC4FD8C738EAF2F2A222C9D299B9470796CE0A33F30E3C707CD4BAA05CB6E8BC216AE18CC1F1FA630FD13B863627317390884C0C505EF322227
310
07C20E40435B9742D7730FDF266755C20E802AC0B5ACE4E22152D2035597F52F3241A423E2148DA4D1CF60CD0AF0E594D84900AC08C42196F5644DEE745D5376DFD6627805A0611AEF205CD2BAD7BC719E3FE645E7286FD24793D6AA8EE1D3106B8B098A0BF80100D662088B2DA790685BEA7C75E6BF7F572DC0564E202E29
310
9FEF2454089660839A5691B62B316DCCD08F82A16BFA3D1AB05101AFC5B166683AE723737C4CE9CCF01760B66BCF75027A1D3C76CAD058633E44425A66B9F8CE5A0058E878FC19004405AA3B1B3713CB804B0F82341735CFC660D24701A095136A731D49C66672D5934B6FA80AE1B9F0D9006CB7CD216D13F4BC778E5DD84D
310
8BE1F1F8C5887EA56E3440169D9B68BCDDCE5F7FA34DE44F1E509FB8FF1800E106315121B13DFED6B94DDBFD1B576BF2DB4BD2F43B526CA9EE46D0E7C892B6E8AED2817926A85CCC8F01506A01CCE69DECC126E1B302C49AFB3E9BCD39E58B9801623EBF597795E6D547CAB32A2F0F54FC0C2F36CEC60CFFAFAEDF6980EC0F
310
E28C17254C077CFA41FAAD16114BEA1FEA987589348843EE870454F44B8F267A0DC0243B323FD315BFEE0D49D110F3B06CF48FAD0E2C7919306FB9B18A11D311D39C794A33367B1433F79067D61E03A00227D19F82F0DC0802801A9FD346DAD6B65313098016FB5F8B84EC0AD7D8B1B425E51ABB0DE8511FE23CA7C72AB091
310
F8A52AEC22B0A48B829D3AB8C56EE261157DDD820C2CA33FDA4A58560CACBF5ECEAC6A857A07820A003EA7841FC9CAFB545F7188D90D14BEAF2020AE4B8AD83648374C96A16EFB1BFACBBD97B47CAC45C452C3DE36172AEED33EFBFE2552BCED00D09EA84018EF80803EBCA8038BA199A17958623B1577DF01B8292B905F8A
310
1B9FB3891FC20AFF7B5B605705CAD601ED85380B439B9D94C8C36F380A3C0CB4C81932B9AA130DF8F8100094376A5BF9C730EC6F06B89F844008CEB707611071EBA76D7A1B21972DE879511256769CA6D9129202EA0367FFDCE6FE6298C422DB499ACF7907384B07AE4F6665B724F5500E80EF034F0BDEC8BD3F6E28C4C4EA
310
CCF417711E3725D5A4D1F47DBC00381780A7C3D211B8E39C69B97BF3730E3D43AEA7CDA4521E952949A16C0D8238B36A48EA37068A5871A899D4734EF42BCAFFF8492C29580A0065E347D085583B7845FE4D88EC6E9001686D701AF5F426B78194109F08C0935B2E6AB7822CFD056F1500F08146DACCFD226C4364BBA9E2D7
310
DFE5517EC39325C2390AD3CF00007905B1B482D2EF3CA071A63AA94A1EFECE5E4DCF5E6106C947CAFD8C9E81758080C063E3CFC80F3074EAB19542C87F5900D60388EB66877C08058EACAFEF0DCADB03B16E93C8073A45ABEC67004813E398DAA4DE2C5E605F030666DC436011C266CAB1670A96526FE2EDD01FF85100B425
310
995B03A93130D400A51D5EFD58DD0A98F540CE54CB9CC1160080CD29363F650232E09C32522F02479E248D116E9205EB0F141B468CDFA365676BD13887486F948F4FC9CF9DEF04DFF456F2644A0E7ADCC6E483CDB8DD535112DA5A48E40AC74FD31D96D7DFFF16BFCA72781ECECC857B45F4566743722658E3379253BAAAE4
310
B81B010665D80080B9C98A631185E36EE10A009D0F003C0260DC424F7B7B4770D083387D0D6B24A712F07D9724611B5A60B8EF5EA251709E0954AD7FDB8F8265347AEFBCF574E4DC4621706C7706004EA8F0267A1C99F0B74A841527780E0083D13F0060085EBBF16EDB408C6C08CA5CDD5ED4E4E2C11301C75000800D0074
310
1600A3F88F00D8CC2A0FADDBCDAE2E4C8F4135DF0D9429B518DA01E3CFC7D21ABB9FBEFAFB3E6048D091A066BB18E39B9B1EEA5002E1581E851B6D35A216F274CF47027C4F26F0B6CD847187151937536FC6DBF2FE1AC26D39B5C1EA5E5BE23B001410E06700C087BABBD06627D1F637F466327DCB78E6B70FBD50A47D0090
310
7E5A034A86D27648B1FDC0105BDD3501AC0930EEFD36631C0BDE5D9FEA779F00E0FE75F9018745D803407C9D6F098DDF3546E36C5352857B3811F5F1583AAB0923187FEBABCD0A1F118C7F81E2FD7E38677A3BFAC4FFFEF7858FBB962BFB245FFD367EC8FD88F89F5483B7A34FFDEF08009B20733D9496BEBA80EB6191EECF
310
01FF3FFA3983AD0A7C97780000000049454E44AE42608228111CBCEA870BD01200E250560EFFB1F932B451E26189BC115BF9FA1CC01DD3E42ADDA330D2E38D1C1C46974A901D453B6D40B4331063489BD852E2BF6CD04BE10ACE5635E07B54125639D75400795745895D8ED9A9B172DBE8699319EAC7AEA8AFF51C031C95A5
310
229636B63A8672D60BFD62D45082B43717D456853BE0946C468FD409C042CE6BED793D9B1D9640C6600220323927FAB04DE32900A4131285B8260C4B0522312C2EF293B37AF256D159DD4E101A8052DB4702FDDAAD6D6A42CD802751521897DD0AFE0081649E9F4CA3577A8F178EC18A8F74CCADCD7E2100611612FCF97081
310
9F02C8609AB6DFC646C2D49A0B28ECEBB9D6983B7DB6111B83004AED43004AD236A79D991189120CC36D33BAFF9139AA369BA4C69E705A54E085B2B2D1107E72B21E531598EB0AC92BD9045564879EEAC0686B728C6C3DE7D6E091825CD06DBA128075B2ACFA62E650BB16902C1785004077E7FA6DFEC335567B222651DB04
310
14F84A666FBD1E979F82D9DC8186B5A3A50FB6EA48A40580BD275613868F3150A9BD093173F469027E9012B0500C1DCDA2C779576D890525A1DC0614266057C5CC62B7A3430099BD1ADC58C12B2437D702A29C6B7567B72B397023CC400030071C3D3DC1DC6EB1C2131633BB573C2E6840426C4F018CDD5FDB7D55F904CC4F
310
09EC7BCD53C82826EA3AE1F88600C49AB788AD8C49BF0E27D02BFA809701B380763133BD0E01C0269B24B49E9CBCAF9080ECFA4860D3A700B877F529008CC3CC4EF6626F88FC0A57A522644CF3CA0D737067EC76800088FAF45ACA2898AE767068E728B12BF880D98D9C0250F62E32F9FA10C0FA8A8F629579EE5E67FAF76F
310
01B09EC8DD2AA29C097163073093B39A46ACF90AF8A36294E88125B0FAB38A24516B5D44673010A1D8F14B5F712C294D553A042028343E0550EB89B90E7B270BD30560077D43AD8F3DE971C4DB12CA6D5A5C1C8828DC9AE218E72057DF2A5D12E2C3AF09ABA855F19D85FCC5A8322D8024D0D17ECA9255FD10008B3995F58B
310
04A4880899ED9A9D418021C01E4BF26B534CD0174F0928793840B58DBD0DF45DE0AA6A4D9EA50DA0F162D6AC23E228559392992D4D77492710A9E085FCDF89BA3E04F0B91D706E472385D3A600F01886E76CDB187191A2B7F69E762C0DE1D41686CE22FB7F61EF3419ECC2AE450B003650C9432699C685C55C44068A36A929
310
05A1674D4214803C1E40354F09C8B9506AEBFF57F8FEA314707B9E5F6605850716D8B0935A33EF412C562550815431E78DF22287001A03ABC1D682B691E9731D5432F2192E81B5F9652636DBB1CCCE09489E833BCBE6A01E16A76D096831BA15E73B673B650EF88092F43AD87CD223009E85D18E642F60C2D8242636DB6AF2
310
41BFB55270D73E6B4E3DA2798110CF4EDAC5763D090004E12000F606E6F634E9F5DFE9FABFCAF751B39DA44DA3C8E6885776A15302764CBE365F73ACF5B2812ACA2C005E0C83C7E693EAA4CF0115CFBD70DE3E0026702563458AA4A25EFD252EEECAF2737D4EEB0B635F0920DD61A652951AF50E4E048FC5D0F93A095CB95A
310
4BAB59C7FAC8812A62B64FD9497E39CB612674136C9DC030E63DA65A20C1002150AD3A940D69E6CA01AB455527C1904B66A7EFB30107D428E7D83E5A1BFCF84BAF53030A40D8EB266A954A0D365149511058488033B9A3DDD0157FB1ED528BD814A0AAC73AF74845C0E294667085FA7068680E83ACC14BB6E9FC01AEE7C6FB
310
19F8D7D894C6ED932434BE5EE79344728323B38804DCBD1B8D80C1F84482E223FBE8B8150F5F079BA0E91C78180A11F7ED04F02C1DC49066ED10C5EA51A0C7734E6C3D04C04F7C383E9B5B330D675CCDCE7E2D1D1F8846AB7E22DBF7A469B17A0712FC22742C07EFF2911B1C8CC6C2995137672F469BE06CA3CBCC897A6B0A
310
1F573E63C93BA3DF9736203427BB8F9D5D9C985627CD390B83D76C3A93F638D6D832A92AF882A38BB19DA9C0ADF45A2333B88A90FE58B94A54B4080B6C4D347D0530036787599E801CC16746AC0857258040C574B076DB03289F3C90BB94D14C21813151AED72EAF989870DD6C051B9278AAF1425884ED43290A2643E4652D
310
808704B0D79F9D0918013240EB6448F0FC0D9F6B95A4903DD7A1013269CB588062BD8CBA7704C47E106E50F8F8A841196A53B51ED0A887FBC2C5BF483892D197043072D131FCA2022635CB3E983A2896F9452142E443CCEBCC39C7243D97064805FBD93AD2DABB98408095E0CEE9771A01D3421DC7AFFD18E93B89E98F679F
310
555FD2A626C82F02907AE88B16BC8C9A1481D795741B59FD20A4F94022F6CE14485C9900A10DB692B5AD187132E00B1881AC8F0D09354ACFA7BB718D9E73A10EB790A4EF7B1585C0816DD53DBC38F0F52100A80BA1854A0C84FB19E14B9C1338B5837FB88008D843004ED6C1D81DA593904BF276D4012130A9B98F6110ABA4
310
878DD6361761F61E1630BB5F45384A223D1A3F9A21DEBCA7BF3E54A082065B0BD17D9309B7CA5C8B1E5366FD818E22FD90E1096A76368D7A93BC8DA5ECE824F589FBBEAF2C8F992AB4FFF3B9E5BDB771BD96B19A4F0D686C3458FF6878FFAA0283DA98FAAFC542CE6A3292B0EA85D7676CD3B25FB3E5F54550B7967C1604C4
310
813E1E744CA7AC3587FD68FCDC626D768C03D72EEAC73AB2E426D878305A60849B7503A2D124DDDAA07FB4048ADDE88464C1B21B8C1839872E93A42AC82AB407B08B74301FB2C01E3A2BA5DC2AF8CCAB706C6E319F03E2E28D3FD86036BD9AE85FFD111050B9FEA61F9D5554BB835916336B6C4B55A3C173E8F358734B74E9
310
000003E8494441545BF0C8DA171B92C840C78AD77E5C44A73C969970BAC854F36392513B803042F4EE6DE126D407B7AF986E48447B168759A5F533F526CDDFE6FEDCEA42A50000483967102A2D3B15A05821264C7F426D02DDE24604EFD167CCF7AA310F6CAFD2C952E53E231BE43AF0F940A3B17AAFF5C1680D6C7DA0D8B7
310
5EB8780CE64853EE500AA1BF801EEBF6F74FFDAFA7BE1D6D40E37360C819D46298596D12C57DAD36B2AD63B12877D8AF7615FD8C0643356E456E9E4FB4A23E4C4C36291017BB3D7EC670EB5D09C91C21C7D60A658CDF77F955FB098EE0CD048B3EB1DC1880664DE0E3C558156212652E43B246CCCF05009222890CD9D679FE
310
90CF6B3A44290D407B9E95FD7CEAE59CCDAE31B06A06A1A026279B33D98FE73E367023C7ADFCFAEADF4D3BE8D21D6CBFB8AE0737B5785673F581849B543EE4D17C0CC069196574C7FAFC81031D3468DCD6F1D4CB667727F29FB1AC97C7185D4232AEA5F5FF31AE5A9C885349BE16590C3DF016041C4257CDCEB57E7A91D5F8
310
722D9CEE645A154FBB1BE476269DE391A772EC2B65C29800AD9C8B827C2ED823D7BE5A25951B016A3915BF1E9283EDB8CCD12B927DD9A61536A91F7B98F30591BB379DC63A3DE4739CB2DBCE28816DB34301941EC85E74A07C04DAE10F275765E181739CC3AD81F76AB52362F403EDB8FDE9D4FF866A0CFB8EEC04BB61C790
310
0286DFA4F6E9B1F5A1A3C62974689AC1AAD0B0C0C0AC5D11954ABDE6C65919F6C165089306CDDDF1B5208E73EA52032AB35B4604C0E5E103BD6C4075F6C72AD7A992770CFB459B6F4B64D36EF77F9D35CC0030EAC858BEDD23FDE6FD0C37AD08A49D6A8E8511EA15118FC6433DACAE2AC15AD32E529C29E3164C4EDF482179
310
61B8E203C841576CAE74ACAA9738DFD683AD0A5F6D535C48A424EB6266AF6B8C73ACAF38471D4BF333ED402A83D0EDD63F32A3E5C01BEA6946B5200E8F3D747205C15BDC1AD025506A22523A193CA9F95088757828180528F34580B51A0AEE27C9D5231BE458A1DC416FD5A96B0DE569471C8AB2E102AEB94541C68A6BCE7B
310
706D071A25451301E7ECB6D6D55B3017979E8D7DC7AB36915027B1D145AA6F90A5418D12D6D45D2D6B9A3B41ECE83CCD479EB39D08ACE8D5E83B01D87CC8AB1DE8EC981FE6BE42669DC5DFE6AA1890C3845BBEB00AC886B89162686FE8D23977C9A8ADEB68F5F011160B936CD1B9FAF2C30BD51331D93CE685A37C5AD30352
310
C8FDAC2A3CCA2D1FE1B00E0FB0C6438DA8B357D6B4ABF619341A0E56A7727E454083B5D480DA028C2C4D5627EC71B7B6923282B327CAF0A0ABEBD6ED17BE2252584D599E85D6D837CA11B7D17D7AD5F907893BD7971B16EBE4BA95E7FCF47D6D579C7FFF795DC1E8E5733BB408A85C81E7FF07DCAEBC8F4F85D2FA00000000
310
49454E44AE426082
  0
ENDSEC
  0
EOF
